<svg class="main-svg" xmlns="http://www.w3.org/2000/svg" xmlns:xlink="http://www.w3.org/1999/xlink" width="700" height="450" style="" viewBox="0 0 700 450"><rect x="0" y="0" width="700" height="450" style="fill: rgb(255, 255, 255); fill-opacity: 1;"/><defs id="defs-95f618"><g class="clips"><clipPath id="clip95f618xyplot" class="plotclip"><rect width="561" height="330"/></clipPath><clipPath class="axesclip" id="clip95f618x"><rect x="60" y="0" width="561" height="450"/></clipPath><clipPath class="axesclip" id="clip95f618y"><rect x="0" y="60" width="700" height="330"/></clipPath><clipPath class="axesclip" id="clip95f618xy"><rect x="60" y="60" width="561" height="330"/></clipPath></g><g class="gradients"/></defs><g class="bglayer"><rect class="bg" x="60" y="60" width="561" height="330" style="fill: rgb(255, 255, 255); fill-opacity: 1; stroke-width: 0;"/></g><g class="layer-below"><g class="imagelayer"/><g class="shapelayer"/></g><g class="cartesianlayer"><g class="subplot xy"><g class="layer-subplot"><g class="shapelayer"/><g class="imagelayer"/></g><g class="gridlayer"><g class="x"><path class="xgrid crisp" d="M0,60v330" transform="translate(197.37,0)" style="stroke: rgb(238, 238, 238); stroke-opacity: 1; stroke-width: 1px;"/><path class="xgrid crisp" d="M0,60v330" transform="translate(337.64,0)" style="stroke: rgb(238, 238, 238); stroke-opacity: 1; stroke-width: 1px;"/><path class="xgrid crisp" d="M0,60v330" transform="translate(477.92,0)" style="stroke: rgb(238, 238, 238); stroke-opacity: 1; stroke-width: 1px;"/><path class="xgrid crisp" d="M0,60v330" transform="translate(618.19,0)" style="stroke: rgb(238, 238, 238); stroke-opacity: 1; stroke-width: 1px;"/></g><g class="y"><path class="ygrid crisp" d="M60,0h561" transform="translate(0,336.65)" style="stroke: rgb(238, 238, 238); stroke-opacity: 1; stroke-width: 1px;"/><path class="ygrid crisp" d="M60,0h561" transform="translate(0,297.3)" style="stroke: rgb(238, 238, 238); stroke-opacity: 1; stroke-width: 1px;"/><path class="ygrid crisp" d="M60,0h561" transform="translate(0,257.94)" style="stroke: rgb(238, 238, 238); stroke-opacity: 1; stroke-width: 1px;"/><path class="ygrid crisp" d="M60,0h561" transform="translate(0,218.58)" style="stroke: rgb(238, 238, 238); stroke-opacity: 1; stroke-width: 1px;"/><path class="ygrid crisp" d="M60,0h561" transform="translate(0,179.22)" style="stroke: rgb(238, 238, 238); stroke-opacity: 1; stroke-width: 1px;"/><path class="ygrid crisp" d="M60,0h561" transform="translate(0,139.86)" style="stroke: rgb(238, 238, 238); stroke-opacity: 1; stroke-width: 1px;"/><path class="ygrid crisp" d="M60,0h561" transform="translate(0,100.50999999999999)" style="stroke: rgb(238, 238, 238); stroke-opacity: 1; stroke-width: 1px;"/><path class="ygrid crisp" d="M60,0h561" transform="translate(0,61.15)" style="stroke: rgb(238, 238, 238); stroke-opacity: 1; stroke-width: 1px;"/></g></g><g class="zerolinelayer"><path class="yzl zl crisp" d="M60,0h561" transform="translate(0,376.01)" style="stroke: rgb(68, 68, 68); stroke-opacity: 1; stroke-width: 1px;"/></g><path class="xlines-below"/><path class="ylines-below"/><g class="overlines-below"/><g class="xaxislayer-below"/><g class="yaxislayer-below"/><g class="overaxes-below"/><g class="plot" transform="translate(60, 60)" clip-path="url(#clip95f618xyplot)"><g class="scatterlayer mlayer"><g class="trace scatter tracedd1b30" style="stroke-miterlimit: 2; opacity: 1;"><g class="fills"/><g class="errorbars"/><g class="lines"><path class="js-line" style="vector-effect: non-scaling-stroke; fill: none; stroke: rgb(31, 119, 180); stroke-opacity: 1; stroke-width: 2px; opacity: 1;" d="M0,140.15L0.6,129.97L0.7,257.39L0.8,226.97L0.9,188.31L1,16.5L1.4,281.93L1.6,213.97L1.7,207.05L2.1,205.09L2.3,262.45L2.5,254.81L2.6,219.72L2.7,265.47L3.3,219.08L3.4,243.13L3.5,197.97L3.6,263.16L4.2,246.12L4.3,211.65L4.7,274.28L4.9,231.02L5.01,172.24L5.11,271.27L5.7,195.85L5.8,182.41L6.1,178.54L6.2,278.53L6.5,251.63L6.6,184.28L6.7,277.02L7.21,159.43L7.41,249.65L7.51,241.44L7.71,267.3L7.81,187.21L8.01,140.07L8.4,281.64L8.81,277.58L8.91,236L9.31,269.1L9.41,200.39L9.51,217.68L9.61,243.53L9.71,184.16L9.91,272.06L10.31,240.25L10.41,275.48L10.61,276.43L10.81,150.16L11.21,243.33L11.31,243.24L11.51,234.37L11.61,246.55L11.71,152.65L12.31,279.41L12.51,277.18L12.61,260.12L12.91,298.7L13.31,170.45L13.41,220.73L13.51,276.42L13.91,277.21L14.11,208.37L14.41,222.8L14.51,284.23L15.11,134.67L15.21,262.76L15.31,292.62L15.51,224.01L15.81,277.68L15.91,197.43L16.11,291.91L16.61,243.18L16.71,150.51L17.01,277.05L17.51,232.1L17.61,281.15L18.11,161.26L18.41,251.83L18.51,257.8L18.71,268.73L18.81,234.09L18.91,266.3L19.01,294.09L19.51,169.71L19.71,267.97L19.81,258.42L19.91,261.03L20.01,186.3L20.11,162.5L20.21,284.11L20.41,216.86L20.51,288.01L21.11,208.86L21.41,225.41L21.51,276.57L21.71,292.7L22.01,242.14L22.11,285.82L22.21,285.45L22.71,223.8L23.01,265.95L23.11,281.87L23.61,164.65L23.81,243.09L23.91,254.21L24.01,225.22L24.21,284.52L24.52,258.34L24.62,279.98L24.72,168.96L25.21,281.89L25.31,217.29L25.41,263.84L25.61,274.09L25.71,242.97L25.81,238.7L25.91,260.85L26.01,278.19L26.11,294.95L26.21,251.95L26.72,278.62L26.82,240.7L27.42,236.29L27.52,275.39L27.62,244.13L27.72,200.22L27.92,287.29L28.32,202.98L28.42,238.09L28.62,276.66L28.92,221.14L29.22,254.56L29.32,259.48L29.42,173.98L30.02,270.97L30.12,204.59L30.22,253.84L30.42,261.68L30.52,235.44L30.62,279.32L31.22,274.96L31.32,237.27L31.62,152.57L32.02,280.72L32.12,275.45L32.22,203.55L32.42,291.01L33.02,246.08L33.12,264.97L33.22,285.02L33.32,224.11L33.62,271L33.72,212.62L33.82,280.47L34.52,260.44L34.62,259.51L34.82,287.31L34.92,287.04L35.02,255.24L35.52,170.24L35.62,283.63L35.72,287.37L36.12,294.42L36.42,209.99L36.52,264.09L36.72,244.7L36.82,208.69L37.22,266.96L37.52,255.76L37.62,204.82L37.92,282.28L38.42,264.89L38.52,228.25L38.62,267.86L39.12,195.4L39.22,251.79L39.32,211.98L39.62,283.58L39.72,193.3L40.02,265.01L40.12,154.86L40.62,278.85L40.72,128.87L41.42,280.25L41.52,243.07L41.62,226.77L42.02,212.19L42.12,290.73L42.32,260.33L42.42,208.11L42.52,193.9L42.62,246.42L42.72,273.9L42.82,282.54L42.92,266.37L43.02,268.94L43.12,158.17L43.42,280.34L43.72,134.23L43.93,258.79L44.03,274.43L44.13,226.8L44.33,284.48L44.73,243.76L44.82,273.84L45.02,277.74L45.12,232.73L45.32,288.81L45.52,200.84L45.73,268.44L45.83,182.78L46.03,283.12L46.63,243.13L46.73,260.02L46.93,289.7L47.23,196.18L47.33,223.94L47.43,279L47.53,288.91L47.63,276.55L47.73,226.85L47.83,215.18L47.93,255.19L48.03,242.68L48.13,277.02L48.33,287.19L48.43,232.54L49.23,284.27L49.33,230.84L50.03,291.76L50.13,170.12L50.73,289.94L50.93,276.3L51.03,259.54L51.13,228.17L51.63,274.24L51.73,277.47L52.23,260.09L52.33,274.16L52.53,277.2L52.63,271.03L52.73,256.91L52.83,244.6L52.93,293.65L53.13,284.64L53.23,290.71L53.33,98.02L53.73,293.1L53.93,243.94L54.03,253.72L54.13,277.41L54.33,202.39L54.73,277.36L54.83,246.47L55.13,206.9L55.23,277.17L55.63,265.52L55.73,280.22L56.03,261.19L56.13,288.66L56.43,273.94L56.53,275.53L56.83,149.48L57.23,290.56L57.33,281.22L57.53,288.03L57.93,244.87L58.03,263.95L58.13,292.06L58.63,227.32L58.83,266.04L58.93,289.62L59.33,180.06L59.63,257.2L59.73,260.06L59.93,253.18L60.43,293.26L60.53,289.72L60.63,270.94L60.83,276.12L60.93,254.11L61.44,284.57L61.83,283.77L61.93,249.53L62.13,239.94L62.33,290.47L62.73,269.12L62.83,281.18L63.03,290.62L63.24,181.31L63.34,276.48L63.64,159.56L63.84,230.55L63.94,261.96L64.04,260.51L64.14,263.15L64.24,276.49L64.34,298.21L64.53,259.44L64.83,273.79L64.93,262.23L65.34,229.63L65.44,295.24L65.54,263.22L65.64,196.2L65.74,284.79L66.44,274.86L66.54,248.6L66.94,204.31L67.14,283.89L67.34,283.1L67.44,260.76L67.54,164.28L68.14,292.7L68.24,287.07L68.84,295.82L68.94,243.5L69.04,278.93L69.24,267.88L69.34,224.48L70.04,297.41L70.14,273.66L70.24,271.17L70.34,259.6L70.64,296L70.74,282.44L70.84,292.63L71.04,253.07L71.64,275.7L71.74,279.98L71.84,280.32L71.94,275.65L72.04,241.21L72.54,282.74L72.64,241.57L72.74,279.25L72.84,280.58L72.94,259.47L73.04,223.5L73.34,279.42L73.54,251.02L73.64,280.26L73.84,254.82L74.34,284.68L74.44,256.16L74.54,279.73L74.84,260.94L74.94,296.39L75.04,274.94L75.14,259.06L75.44,299.5L75.64,252.24L75.94,288.06L76.04,265.58L76.24,289.48L76.34,219.55L76.64,286.65L76.74,293.34L77.24,240.79L77.54,271.94L77.64,273L78.04,284.98L78.44,239.87L78.54,244.38L78.64,280.58L79.34,238L79.44,289.47L79.74,291.84L80.34,262.31L80.44,285.09L81.05,241.78L81.15,291.52L81.25,263.46L81.34,275.95L81.54,266.06L81.64,292.32L81.94,270.51L82.04,249.45L82.14,234.84L82.34,281.96L82.54,278.35L82.65,282.44L82.95,240.44L83.05,279.52L83.15,292.99L83.55,261.89L83.75,278.88L83.85,230.28L84.34,295.53L84.65,278.51L84.75,263.05L85.05,248.41L85.55,288.11L85.65,279.86L85.95,293.91L86.05,240.13L86.15,288.49L86.25,286.2L86.45,273.95L86.55,274.63L86.65,297.65L87.35,262.24L87.45,290.51L87.85,242.26L88.25,253.68L88.35,274.42L88.55,286.71L88.85,256.67L88.95,287.41L89.55,291.69L89.65,262.77L89.75,290.53L90.05,290.77L90.25,228.09L90.45,253.74L90.55,290.57L90.75,297.83L90.95,258.28L91.25,292.54L91.35,296.25L91.65,256.4L92.05,279.1L92.15,286.11L92.35,236L92.85,292.93L92.95,292.97L93.65,262.38L93.75,288.2L93.85,213.63L94.05,298.85L94.45,288.29L94.55,282.31L94.95,295.25L95.25,284.71L95.35,257.1L95.85,298.26L95.95,244.21L96.05,267.54L96.15,243.26L96.75,297.22L96.85,214.36L97.55,299.76L97.65,297.53L97.75,279.37L97.85,278.18L97.95,246.26L98.45,240.98L98.65,303.76L98.75,285.77L98.85,287.78L99.05,289.61L99.25,253.08L99.35,291.54L99.45,290.53L99.55,292.45L99.65,290.96L99.75,272.63L100.05,244.42L100.16,290.21L100.36,274.96L100.46,258.88L101.05,293.08L101.35,289.55L101.45,286.61L101.75,298.6L101.96,287.54L102.06,285.16L102.36,257.32L102.76,294.19L102.86,266.43L103.06,262.12L103.16,299.63L103.66,284.92L103.75,284.25L104.06,273.02L104.16,287.72L104.36,282.44L104.46,294.26L104.76,297.79L105.16,271.14L105.26,289.19L105.56,258.6L105.76,301.29L105.96,281.51L106.06,300.29L106.36,247.55L106.76,293.91L106.86,291.47L107.16,280.14L107.36,304.05L107.46,252.99L108.26,303.48L108.36,281.33L108.66,272.95L108.76,291.43L109.06,285.73L109.16,285.08L109.26,282.02L109.56,292.65L109.66,287.11L109.76,291.88L109.86,292.9L109.96,290.98L110.06,279.92L110.26,259.09L110.66,296.39L110.76,253.85L111.36,297.14L111.46,284.21L111.56,271.02L111.66,292.92L111.86,264.87L112.26,278.51L112.36,262.31L112.86,294.28L113.06,290.59L113.16,258.67L113.46,302.95L113.56,257.88L114.06,299.86L114.16,286.17L114.36,295.36L114.46,284.97L114.56,287.47L114.66,260.34L114.86,294.08L115.46,278.81L115.56,291.96L115.86,273.64L116.06,301.31L116.36,281.89L116.46,289.82L117.06,271.01L117.16,291.45L117.26,298.64L117.67,222.03L117.76,292.13L117.96,278.38L118.06,297.55L118.46,268.77L118.86,277.06L118.96,299.56L119.16,280.71L119.26,304.29L119.36,289.98L119.47,251.9L119.87,299.11L120.37,287.59L120.47,288.82L121.06,284.87L121.16,293.94L121.26,282.1L121.47,298.29L121.87,275.73L122.07,297.08L122.17,280.99L122.67,295.63L122.77,273.26L122.87,298.75L123.07,271.79L123.57,299.65L123.67,292.14L124.07,292.41L124.17,277.86L124.27,301.24L124.37,285.8L125.07,290.12L125.17,299.72L125.27,298.49L125.37,275.92L125.67,290.89L125.97,288.28L126.07,271.35L126.27,299.95L126.57,267.05L126.87,292.91L126.97,288.33L127.07,288.14L127.17,295.41L127.27,299.01L127.57,282.8L127.67,289.78L127.77,275.7L128.17,300.83L128.57,288.42L128.67,285.42L129.17,299.81L129.47,295.58L129.57,292.23L129.87,300.13L129.97,286.5L130.17,295.55L130.27,290.35L130.37,298.5L130.47,261.26L130.97,289.79L131.07,290.79L131.27,278.13L132.07,304.66L132.17,294.3L132.57,298.73L132.97,273.24L133.07,288.91L133.37,287.2L133.57,300.64L133.77,290.11L133.87,289.37L134.07,299.88L134.17,297.47L134.27,276.39L134.77,300.77L134.97,289.03L135.07,283.94L135.47,298.77L135.87,289.15L135.97,279.39L136.17,297.8L136.77,292.38L136.87,298.62L137.18,278.7L137.57,291.49L137.67,292.74L137.77,287.96L137.97,299.76L138.27,292.98L138.37,299.99L138.47,285.26L138.88,301.98L139.08,288.94L139.18,293.48L139.38,282.95L139.68,301.8L139.88,296.68L139.98,292.52L140.18,275.1L140.47,298.13L140.67,296.81L140.78,289.9L140.98,282.03L141.08,300.1L141.58,298.2L141.68,290.15L141.78,287.26L142.08,299.47L142.18,297.93L142.48,300.83L142.58,295.26L142.88,295.39L142.98,299.73L143.28,304.92L143.38,288.43L143.78,289.22L143.88,302.95L144.68,282.04L144.78,293.75L144.88,303.92L144.98,291.51L145.58,297.78L145.68,302.14L145.88,286.41L145.98,301.4L146.38,281.11L146.78,297.09L146.88,291.45L147.08,301.95L147.68,300.91L147.78,296.08L147.88,295.35L147.98,303.21L148.78,285.63L148.88,301.97L149.38,283.2L149.68,299.24L149.78,300.54L150.18,285.44L150.48,300.01L150.58,299.28L150.78,301.43L150.88,295.39L150.98,294.76L151.18,292.22L151.28,297.16L151.38,300.53L151.48,305.1L151.78,293.32L151.88,300.31L151.98,288.38L152.28,300.2L152.48,286.89L152.78,299.92L152.88,293.45L152.98,293.89L153.08,287.97L153.28,301.39L153.68,301.03L153.78,294.6L153.88,295.37L153.98,288.19L154.18,305.5L154.58,302.4L154.68,289.34L155.18,288.1L155.38,303.29L155.48,295.98L155.58,293.63L155.78,286.27L156.08,303.88L156.18,296.36L156.28,208.42L156.39,300.94L157.08,298.49L157.18,303.27L157.58,303.77L157.78,282.02L157.88,300.15L157.98,303.82L158.08,304.61L158.18,299.83L158.29,300.11L158.49,303.54L158.79,279.5L158.99,301.92L159.09,299.84L159.39,302.51L159.59,290.24L159.79,295.84L159.88,298.86L160.08,302.42L160.19,289.7L160.59,293.15L160.69,295.91L160.79,296.36L160.89,301.71L161.19,289.06L161.59,298.66L161.69,295.63L161.79,277.39L161.89,297.76L162.39,285.75L162.49,305.94L162.79,296.09L162.89,300.12L162.99,269.67L163.59,305.15L163.79,291L163.89,300.45L163.99,302.09L164.09,289.96L164.19,287.87L164.29,302.8L164.99,302.92L165.09,283.94L165.19,304.9L165.29,281.93L165.89,297.73L165.99,306.47L166.49,289.42L166.69,297.19L166.79,301.73L167.19,297.41L167.29,303.03L167.39,305.04L168.19,287.15L168.29,301L168.59,303.24L169.09,290.46L169.19,294.94L169.29,298.1L169.59,300.25L169.89,289.35L169.99,296.47L170.09,301.6L170.39,296.72L170.59,298.95L170.69,305.88L171.19,291.2L171.39,302.71L171.49,303.33L171.79,290.82L171.89,304.19L172.49,291.43L172.69,302.29L172.79,303.2L173.19,287.8L173.49,305.44L173.59,293.47L173.69,304.32L173.99,293.77L174.09,304.81L174.39,304.55L174.49,300.8L174.69,299.66L174.79,302.74L174.89,294.94L175.59,305.11L175.69,298.11L175.8,295.86L175.9,290.66L176.2,304.78L176.5,296.36L176.6,298.49L176.79,304.7L177.09,285.22L177.29,299.58L177.39,303L177.59,306.06L177.7,295.38L177.9,303.63L178,293.24L178.1,293.55L178.2,297.6L178.3,299.05L178.5,292.3L178.6,290.76L178.8,289.47L179.1,302.91L179.4,302.16L179.5,300.04L179.6,306.4L179.9,294.27L180.3,304.47L180.4,302.58L180.5,304.02L180.6,299.19L180.9,303.25L181,299.68L181.2,295.29L181.4,296.5L181.5,302.93L181.6,303.6L181.7,296.78L181.9,294.09L182.1,304.59L182.5,302.39L182.6,300.51L182.8,306.23L183,294.99L183.2,305.66L183.3,294.77L183.4,302.18L183.8,291.77L184,296.47L184.1,296.3L184.2,304.66L184.9,303.52L185,299.09L185.2,294.49L185.6,306.18L185.8,303.63L185.9,302.79L186.1,306.88L186.7,295.09L186.8,302.73L186.9,303L187,302.38L187.1,297.77L187.2,305.02L187.5,294.97L187.9,302.55L188,303.98L188.1,304.62L188.2,301.44L188.3,303.95L188.4,298.9L188.8,305.89L189.2,303.66L189.3,300.83L189.4,305.09L189.8,295.85L190.1,304.35L190.2,299.95L190.3,301.19L190.4,298.9L190.5,276.89L191.1,306.72L191.3,304.29L191.4,303.34L191.5,301.11L191.6,281.76L192.4,305.55L192.5,300.64L192.6,302.47L192.7,289.04L193.2,304.38L193.41,300.88L193.5,291.32L193.9,305.52L194.2,297.68L194.3,296.83L194.5,306.19L194.6,303.2L194.7,293.47L194.8,306.42L195.41,296.11L195.51,299.73L195.91,291.65L196.01,306.59L196.21,301.82L196.3,297.92L196.5,300.16L196.6,293.21L197.31,305.37L197.41,298.56L197.81,304.66L198.01,294.31L198.11,304.5L198.21,299.96L198.31,290.43L198.61,305.74L198.91,297.56L199.01,300.22L199.21,299.35L199.81,307.53L199.91,303.38L200.01,308.15L200.21,299.65L200.71,306.01L200.81,303.09L201.01,307.36L201.41,282.3L201.61,292.84L201.71,303.69L201.91,303.52L202.21,306.24L202.31,296.39L202.71,305.42L203.01,304.73L203.11,297.63L203.31,295.3L203.81,308.06L203.91,287.32L204.11,304.55L204.71,297.44L204.81,303.33L204.91,293.78L205.31,306.87L205.51,304.74L205.61,301.32L205.71,296.59L205.81,305.39L206.31,303.33L206.41,306.56L207.21,296.24L207.31,304.49L207.41,298.12L207.61,305.46L208.01,303.07L208.11,303.32L208.21,300.95L208.41,308.27L208.71,304.24L208.81,307.29L209.51,291.74L209.71,295.05L209.81,301.15L210.21,306.63L210.41,300.35L210.61,305.3L210.71,301.12L210.81,301.73L210.91,296.28L211.41,306.62L211.61,302.3L211.71,297.52L212.01,290.58L212.51,304.56L212.61,303.16L212.72,306.83L213.21,305.79L213.31,301.33L213.51,304.06L213.61,299.37L213.71,303.41L213.81,294.95L214.62,306.63L214.72,299.25L215.22,305.72L215.52,304.18L215.62,304.39L215.92,305.24L216.01,303.71L216.11,301.79L216.31,299.43L216.42,303.13L216.72,306.04L217.02,300.72L217.12,302.03L217.22,299.12L217.52,305.08L217.72,299.34L217.82,305.27L218.32,303.31L218.42,305.76L218.52,305.25L218.62,304.81L218.92,308.31L219.02,299.77L219.32,305.78L219.42,302.5L219.52,289.67L219.82,307.78L220.32,305.28L220.42,299.56L220.82,308.76L221.12,303.33L221.22,302.69L221.42,306.88L221.72,305.12L221.82,299.49L221.92,306.4L222.62,304.02L222.72,303.49L223.02,303.17L223.62,306.99L223.72,303.03L223.82,300.27L224.32,306.98L224.42,301.99L224.52,304.91L224.82,301.93L224.92,305.73L225.32,303.43L225.42,307.61L225.52,307.17L225.62,299.03L225.72,306.49L226.42,306.38L226.52,306.37L227.32,289.16L227.42,307.37L228.02,308.17L228.12,302.56L228.22,306.76L228.32,308.17L228.42,299.32L228.82,304.63L228.92,301.17L229.32,307.34L229.52,300.25L229.72,306.12L229.82,304.67L230.22,308.49L230.42,300.32L230.72,301.47L230.82,304.93L231.22,302.97L231.32,308.22L231.62,299.06L232.02,305.43L232.13,305.88L232.23,294.76L232.82,307.09L232.92,299.04L233.02,305.83L233.12,301.56L233.32,309.16L233.62,307.58L233.72,308.76L234.13,296.38L234.53,304.92L234.63,304.46L234.83,306.87L235.03,305.84L235.13,299.83L235.53,307.33L235.62,294.73L235.72,304.24L235.83,306.94L236.13,307.36L236.53,301.78L236.63,306.49L236.73,309.08L237.03,302.43L237.23,306.38L237.33,302.4L237.83,299.46L237.93,308.1L238.03,306.46L238.13,302.55L238.63,307.5L238.73,298.51L238.83,295.91L239.43,307.32L239.63,304.21L239.73,305.67L240.03,304.32L240.23,306.9L240.33,301.66L240.43,301.02L240.53,305.4L241.03,308.23L241.13,285.98L241.23,304.29L241.33,307.69L241.53,307.87L242.23,300.06L242.33,306.51L242.43,306.64L242.53,303.32L242.63,307.2L242.83,295.58L243.33,305.31L243.43,303.28L243.83,300.68L244.23,310.29L244.33,303.17L244.63,299.91L244.73,307.06L244.83,306.62L244.93,298.98L245.73,307.31L245.83,300.82L246.03,308.12L246.53,298.29L246.63,306.17L246.73,302.8L246.93,307.63L247.53,307.02L247.63,306.46L247.83,303.29L248.03,308.26L248.33,304.64L248.43,307.51L248.73,279.78L248.83,304.11L249.03,308.37L249.53,293.59L249.63,306.17L250.13,308.73L250.33,302.67L250.43,309L251.13,303.49L251.23,305.89L251.33,308.28L251.54,304.1L251.64,308.85L251.74,300.95L252.34,305.29L252.43,306.31L252.53,307.56L252.73,304.14L252.83,299.57L253.44,306.69L253.64,305.02L253.74,305.97L254.34,298.77L254.44,309.04L254.64,310.51L255.24,300.53L255.34,300.67L255.44,307.13L255.64,307.93L255.74,298.76L255.84,299.39L255.94,305.82L256.34,302.47L256.64,308.08L256.74,307.84L256.84,307.44L257.04,283.35L257.24,307.88L257.34,306.65L257.84,302.76L257.94,308.72L258.64,302.82L258.74,307.44L258.84,306.2L258.94,303.15L259.34,308.91L259.54,306.33L259.64,305.08L260.04,299.44L260.24,307.53L260.34,307.6L260.54,308.47L261.14,300.5L261.24,308.15L261.74,299.07L261.84,308.14L261.94,304.42L262.04,309.29L262.54,307.85L262.64,307.08L262.94,308.94L263.04,304.76L263.24,310.5L263.64,308.64L263.74,302.51L263.84,302.81L263.94,300.43L264.24,299.08L264.44,308.1L264.84,307.19L264.94,307.94L265.54,308.2L265.64,304.62L265.74,306.4L265.84,307.02L266.04,305.95L266.14,307.77L266.34,307.51L266.44,308.98L266.64,304.57L266.74,309.29L266.84,307.89L266.94,282.63L267.14,307.42L267.74,306.08L267.84,305.82L268.14,309.13L268.44,304.93L268.54,306.49L268.64,305.87L269.15,309.81L269.24,305.64L269.34,298.75L269.84,309.89L270.14,303.98L270.24,307.16L270.54,303.81L270.64,307.13L270.95,309.09L271.45,300.73L271.55,302.96L271.65,307.45L271.85,298.89L271.95,310.24L272.34,306.66L272.44,308.9L273.25,303.97L273.35,306.19L273.45,295.94L273.85,309.02L274.25,307.21L274.35,307.85L274.45,300.75L274.85,310.38L275.05,303.74L275.15,306.33L275.35,305.52L275.45,306.43L275.55,306.45L275.65,309.18L275.75,309.57L275.85,302.99L276.05,308.59L276.55,304.24L276.65,304.18L277.55,309.55L277.65,308.77L277.85,304.15L278.45,305.59L278.55,309.86L278.65,296.74L279.25,302.05L279.35,306.99L279.55,296.9L279.65,306L279.75,308.43L280.15,300.01L280.25,305.68L280.35,303.32L280.45,310.5L281.15,307.52L281.25,307.21L281.65,304.68L281.75,308.54L281.95,305.07L282.05,309.03L282.75,309.16L283.05,290.06L283.15,304.3L283.25,309.54L283.95,308.27L284.05,301.51L284.75,309.04L284.95,307.79L285.05,307.4L285.15,304.61L285.55,307.74L285.75,306.69L285.85,306.42L285.95,306.67L286.05,303.22L286.95,308.55L287.05,308.77L287.65,296.27L287.85,303.68L287.95,306.52L288.15,307.12L288.25,295.52L288.36,310L289.05,305.4L289.15,287.79L289.25,308.16L289.95,305.4L290.05,303.66L290.76,310.73L290.86,307.45L290.96,306.35L291.26,302.85L291.36,309.43L291.46,308.84L291.56,299.39L292.36,310.3L292.46,309.94L293.06,310.43L293.16,305.3L293.36,306.86L293.46,307.19L293.86,303.11L293.96,309.08L294.46,309.88L294.56,306.46L294.66,308.35L294.76,309.38L295.16,310.32L295.26,305.02L295.36,310.22L295.46,310.97L295.66,309.02L295.76,302.27L296.16,310.72L296.56,308.59L296.66,306.14L296.76,309L297.16,304.29L297.26,308.58L297.36,303.82L297.76,309.87L298.16,307.32L298.26,308.47L298.46,307.72L298.76,308.71L298.86,309.92L299.46,302.47L299.66,306.88L299.76,308.83L299.86,303.59L300.26,308.93L300.46,306.71L300.56,309.35L300.66,305.61L301.16,309.62L301.26,307.55L301.36,308.9L301.56,306.05L301.66,309.83L302.06,308.83L302.16,310.67L302.66,302.05L302.96,305.92L303.06,307.51L303.26,304.37L303.46,308.14L303.86,305.35L303.96,307.79L304.06,310.11L304.26,303.43L304.36,307.6L304.46,297.89L304.86,309.95L305.16,293.96L305.26,309.32L305.36,305.95L305.96,303.66L306.16,310.74L306.26,307.45L306.36,306.77L306.46,310.7L306.66,307.25L306.76,309.37L306.96,310.46L307.36,303.67L307.46,305.7L307.56,308.48L307.66,309.99L307.97,305.75L308.27,308.15L308.37,304.75L308.66,310.55L309.16,306.29L309.26,306.64L309.56,309.78L309.67,306.15L309.97,304.97L310.27,310.48L310.37,305.39L310.47,307.64L310.67,307.3L310.77,308.81L310.87,304.28L311.57,309.62L311.67,305.94L311.77,307.2L312.17,310.37L312.27,304.57L312.37,310.09L312.47,305.45L313.17,311.12L313.27,299.16L313.57,310.44L314.07,308.89L314.17,307.81L314.57,311.39L314.87,304.41L314.97,307.51L315.07,306.73L315.17,308.36L315.27,297.04L315.57,310.48L316.07,305.05L316.17,303.58L316.57,310.93L316.97,309.04L317.07,308.52L317.37,308.27L317.57,310.55L317.67,307.09L317.77,306.42L317.87,309.23L318.07,308.32L318.17,309.79L318.27,306.49L318.87,311.07L318.97,308.37L319.47,308.84L319.57,304.5L319.77,307.63L319.87,307.4L320.07,307.98L320.27,306.88L320.37,307.57L320.47,308.02L320.57,308.47L320.67,305.56L320.77,297.13L321.27,309.23L321.57,308.94L321.67,310.17L322.47,306.35L322.57,309.26L322.67,309.92L322.77,300.1L322.97,310.57L323.57,309.6L323.67,307.09L323.77,310.62L324.07,306.46L324.37,309.28L324.47,305.23L324.87,301.43L325.28,310.7L325.37,307.54L325.47,309.46L325.97,305.42L326.07,308.51L326.17,308.32L326.27,304.11L326.77,309.37L326.87,307.8L326.97,309.38L327.07,310.59L327.18,309.11L327.28,310.08L327.38,299.82L327.58,311.05L328.17,310.72L328.27,310.42L328.67,307.13L328.77,308.93L328.87,311.16L329.78,301.49L329.88,303.26L329.98,308.22L330.08,306.04L330.28,309.55L330.68,307.74L330.78,309.02L330.88,309.38L330.98,306.12L331.48,303.72L331.78,310.21L331.88,309.04L331.98,308.57L332.08,302.84L332.18,302.05L332.28,309.43L332.58,310.1L332.68,307.16L332.98,307.76L333.08,308.93L333.28,310.78L333.48,307.31L333.58,308.05L333.68,304.66L334.18,310.14L334.48,306.91L334.58,308.38L334.68,311.07L334.88,305.22L335.28,307.45L335.38,309.13L335.68,310.09L335.78,309.17L335.88,308.51L335.98,305.21L336.18,309.27L336.48,308.53L336.58,310.97L337.18,311.04L337.38,306.28L337.48,307.75L337.58,308.52L337.68,305.89L337.88,309.23L338.28,307.03L338.38,309.7L338.58,311.75L339.28,305.95L339.38,307.53L339.48,307.08L339.68,309.63L339.88,308.24L339.98,308.36L340.08,307.86L340.28,310.37L340.48,308.78L340.58,302.54L340.78,311.29L341.38,308.77L341.48,307.66L341.68,309.63L341.98,308.33L342.08,307.81L342.38,310.68L342.78,308.55L342.88,298.03L343.48,310.76L343.78,309.29L343.88,309.26L344.18,305.07L344.58,307.57L344.69,308.59L344.79,307.95L345.08,310.09L345.18,310.35L345.78,307.21L345.98,307.79L346.08,310.73L346.18,304.64L346.69,310.91L346.79,309.17L346.89,308.21L347.29,305.55L347.39,309.32L347.69,310.66L347.78,305.27L348.18,308.09L348.28,311.94L348.99,306.86L349.09,309.76L349.19,309.18L349.49,311.14L349.69,303.66L349.79,306.1L349.89,310.1L350.49,310.8L350.59,307.25L350.69,309.98L351.19,311.51L351.49,306.42L351.59,310.47L351.79,311.39L352.29,307.34L352.39,310.82L352.59,310.94L353.09,305.34L353.39,307.57L353.49,311.37L353.69,305.26L354.09,307.87L354.19,309.36L354.29,309.63L354.39,307.48L354.69,306.05L354.99,311.16L355.19,310.82L355.29,307.2L355.39,305.69L355.49,310.73L355.89,306.24L355.99,309.82L356.19,307.11L356.49,310.65L356.59,307.44L356.79,303.91L357.19,311.16L357.29,309.51L357.39,306.62L357.59,312.01L357.89,305.03L358.19,309.53L358.29,311.5L358.69,307.66L359.09,309.57L359.19,311.04L359.79,305.11L359.99,309.77L360.09,309.75L360.29,308.74L360.39,311.13L360.69,310.29L360.79,310.19L360.89,310.55L360.99,309.71L361.09,304.16L361.19,310.91L361.89,307.73L361.99,310.3L362.19,308.96L362.29,311.49L362.39,309.5L362.49,308.8L362.59,310.54L362.69,305.15L363.09,308.77L363.19,307.58L363.29,312.08L363.49,307.04L363.89,310.14L364,306.75L364.69,310.79L365.09,310.34L365.19,307.58L365.49,304.72L365.9,309.77L366,308.58L366.1,306.56L366.5,310.95L366.9,308.24L367,308.53L367.1,305.83L367.49,310.38L367.59,306.14L367.69,310.37L368,310.64L368.5,305.85L368.6,310.96L368.8,300.24L368.9,305.91L369,308.87L369.1,310.21L369.4,307.37L369.7,308.66L369.8,309.03L370.1,310.88L370.3,310.72L370.4,306.19L370.6,311.05L371.3,310.95L371.4,310.61L372,305.38L372.1,308.57L372.2,311.73L372.5,308.67L372.7,309.71L372.8,310.93L373.3,307.45L373.6,308.55L373.7,308.6L373.9,307.57L374.3,311.42L374.6,310.91L374.7,304.89L375.4,311.54L375.5,310.93L375.6,308.56L375.9,311.58L376,306.89L376.2,309.52L376.3,310.4L376.6,312.04L377.1,307.01L377.2,309.22L377.7,306.99L378.1,311.4L378.2,308.71L378.4,311.53L378.8,310.73L378.9,305.66L379.2,303.41L379.4,311.57L379.8,310.19L379.9,308.58L380.1,307.2L380.2,308.89L380.3,311.28L380.4,307.36L381,312.04L381.1,309.49L381.3,309.76L381.4,284.58L381.5,309.52L381.6,305.82L381.9,312.6L382.2,308.76L382.3,309.46L382.5,311.82L382.9,306.9L383,310.2L383.2,311.74L383.3,304.71L383.61,311.6L384.11,310.85L384.21,311.12L384.3,311.57L384.5,309.08L384.6,310.63L384.7,305.24L384.8,305.12L384.9,310.16L385.1,310.65L385.2,308.6L385.31,311.55L385.51,307.25L386.01,310.32L386.11,311.31L386.71,308.18L386.81,311.67L386.91,308.95L387.01,310.91L387.31,307.86L387.71,312.28L387.81,310.6L388.31,312.31L388.81,307.2L388.91,308.58L389.61,312.86L389.71,311.24L389.81,309.2L389.91,311.27L390.01,308.25L390.61,310.56L390.71,309.97L391.01,311.73L391.11,307.71L391.21,309.44L391.31,311.64L391.51,309.41L391.61,311.77L392.01,309.88L392.11,311.08L392.31,307.9L392.81,310.68L392.91,311.64L393.11,307.23L393.41,310.7L393.51,311.22L393.81,308.8L394.31,310.26L394.41,310.08L394.51,311.88L394.81,308.12L395.11,310.71L395.21,307.82L395.51,311.48L396.01,309.36L396.11,309.57L396.21,307.4L396.61,310.47L396.71,308.67L396.81,311.66L396.91,311.99L397.01,309.32L397.11,305.7L397.41,312.21L397.71,308.58L397.81,309.79L397.91,311.64L398.41,307.24L398.61,311.18L398.71,310.68L398.81,311.97L398.91,305.84L399.31,308.73L399.41,309.65L399.51,310.29L400.01,308.7L400.11,309.36L400.21,309.6L400.31,312.43L400.71,309.18L400.92,310.94L401.02,309.39L401.11,309.04L401.21,312.25L401.51,307.31L402.01,309.42L402.11,312.29L402.82,308.97L402.92,311.21L403.32,312.03L403.42,309.15L403.52,309.49L403.62,306.17L404.01,311.5L404.31,310.32L404.41,308.04L404.82,311.58L405.22,309.93L405.32,309.24L405.52,311.93L405.62,307.9L406.02,308.41L406.12,310.03L406.82,312.5L406.92,310.28L407.02,310.11L407.12,310.19L407.22,311.83L407.42,309.93L407.52,310.81L407.62,306.1L407.82,311.98L408.42,309.78L408.52,305.17L408.82,311.59L409.22,308.85L409.32,306.97L410.02,311.64L410.12,308.51L410.42,308.45L410.72,311.36L410.92,311L411.02,310.36L411.32,308.99L411.52,310.23L411.62,311.06L411.72,309.71L411.82,285.54L412.52,311.89L412.62,308.07L412.72,305.34L413.52,312.98L413.62,311.71L413.72,310.61L413.82,310.36L413.92,307.51L414.32,311.96L414.72,309.45L414.82,309.8L414.92,309.5L415.02,310.01L415.12,309.68L415.22,311.58L415.32,308.78L415.82,312.24L415.92,310.01L416.02,311.22L416.22,309.83L416.62,312.37L416.72,310.28L416.82,311.95L417.02,307.26L417.32,311.05L417.42,308.87L418.32,311.88L418.42,310.42L418.62,311.95L419.02,306.51L419.22,309.23L419.32,310.53L419.72,311.37L420.12,308.15L420.22,311.22L420.43,310.24L420.63,310.93L420.73,307.56L421.42,311.87L421.52,308.5L421.82,311.94L422.12,308.25L422.23,309.57L422.33,303.96L422.43,311.72L423.13,310.51L423.23,310.5L423.43,311.38L423.53,309.66L423.62,307.31L424.33,312.53L424.43,309.4L424.53,311.35L424.83,308.75L424.93,312.18L425.03,311.42L425.13,283.86L425.23,312.16L425.93,310L426.03,306.65L426.63,312.2L426.93,311.49L427.03,311.99L427.43,309.04L427.83,310.07L427.93,310.66L428.13,311.1L428.23,310.09L428.33,307.23L428.43,311.66L429.13,310.1L429.23,311.17L429.53,312.03L429.73,308.65L429.93,311.87L430.03,311.89L430.33,309.09L430.43,311.99L430.73,311.72L430.83,310.94L431.13,311.5L431.23,306.87L431.53,311.13L431.63,310.74L431.73,312.15L432.03,307.07L432.33,310.21L432.43,306.25L432.83,311.86L433.23,310.86L433.33,309.23L433.53,311.77L433.93,308.29L434.03,301.32L434.83,312.01L434.93,311.2L435.03,309.21L435.53,312.29L435.63,309.41L435.73,310.57L436.03,307.19L436.13,310.68L436.33,309.87L436.43,311.48L436.93,312.31L437.13,304.63L437.23,311.18L437.33,312.27L437.43,310.01L437.53,311.35L437.63,304.72L438.03,311.07L438.23,306.72L438.33,300.01L438.73,312.32L439.13,310.87L439.23,311.94L439.43,309.5L439.53,312.49L439.84,311.25L439.94,284.68L440.43,311.6L440.73,311.28L440.83,311.1L441.33,307.82L441.43,312.78L441.64,309.61L441.74,310.62L442.14,309.38L442.24,309.78L442.34,311.52L443.23,306.68L443.33,309.53L444.24,312.1L444.34,308.63L444.84,311.78L444.94,309.81L445.04,307.69L445.84,312.43L445.94,309.68L446.34,311.5L446.54,311.13L446.64,306.28L447.24,311.91L447.34,309.95L447.44,307.57L447.94,306.4L448.04,313.05L448.14,309.81L448.24,304.78L448.94,311.08L449.04,309.76L449.14,311.1L449.24,310.47L449.34,296.34L450.04,312.67L450.14,311.2L450.24,311.43L450.74,312.48L451.14,307.15L451.24,309.95L451.34,308.86L451.64,311.56L451.84,310.51L451.94,310.98L452.34,307.44L452.44,312.39L452.64,311.54L452.74,312.57L452.84,309.41L453.54,310.94L453.64,309.5L453.84,312.53L453.94,311.06L454.04,308.42L454.54,312.64L454.84,310.98L454.94,311.36L455.44,312.37L455.74,308.05L455.84,312.24L456.34,312.81L456.44,304.92L456.64,307.99L456.74,311.4L456.94,309.35L457.34,312.58L457.54,311.6L457.64,311.32L457.74,310.08L457.94,312.48L458.24,311.34L458.34,312.19L459.25,307.65L459.35,311.59L459.55,312.86L460.04,307.67L460.14,310.9L460.24,311.12L460.34,311.51L460.64,310.18L460.74,311.4L460.84,310.24L460.95,309.79L461.15,311.06L461.25,312.22L461.95,309.58L462.05,312.07L462.45,312.18L462.75,305.74L462.85,312.5L463.15,311.44L463.25,306.46L463.75,312.26L464.05,311.28L464.15,312.46L464.35,309.97L464.85,311.83L464.95,312.07L465.15,312.15L465.85,307.44L465.95,310.49L466.05,312.7L466.25,310.42L466.65,311.87L466.75,310.08L467.15,308.07L467.25,311.52L467.35,308.35L467.45,308.52L467.55,311.29L468.05,312.45L468.15,310.26L468.25,311.65L468.35,295.06L468.45,312.69L469.15,310.08L469.25,311.87L469.75,308.02L469.85,312.3L469.95,311.66L470.05,311.01L470.15,310.71L470.25,312.26L470.35,312.68L470.65,307.87L471.05,312.1L471.15,312.57L471.65,305.13L472.05,310.27L472.15,311.62L472.35,309.73L472.65,312.53L472.75,312.07L472.85,313.13L473.35,307.48L473.65,310.66L473.75,310.79L474.15,307.37L474.25,312.63L474.35,311.14L474.45,308.4L474.75,311.14L474.85,286.6L474.95,312.7L475.65,311.53L475.75,306.77L475.85,313.02L476.55,310.84L476.66,309.02L476.85,312.38L477.45,311.29L477.55,311.73L477.85,312.4L478.25,308.62L478.35,312.28L478.56,310.85L478.76,311.01L478.86,312.65L478.96,305.09L479.26,312.82L479.56,311.02L479.65,310.67L479.85,310.34L479.95,307.98L480.36,311.96L480.76,311.62L480.86,312L480.96,309.29L481.66,309.34L481.76,310.88L482.06,311.74L482.16,311.2L482.26,310.37L482.86,312.72L482.96,310.79L483.06,310.33L483.16,311.88L483.56,310.88L483.66,287.01L484.46,312.34L484.56,311.23L484.76,311.7L485.06,311.52L485.16,310.21L485.76,308.53L485.96,312.73L486.06,311.94L486.16,312.68L486.36,309.83L486.46,310.97L486.56,308.12L487.06,312.2L487.36,310.5L487.46,309.77L488.16,309.32L488.26,312.3L488.36,309.9L489.26,312.55L489.36,309.57L489.76,308.64L489.86,312.88L490.06,311.53L490.16,307.92L490.56,312.15L490.76,310.35L490.86,290.16L491.46,312.97L491.66,312.44L491.76,311.94L492.16,308.68L492.26,312.7L492.56,311.02L492.66,311.7L493.06,309.62L493.16,310.14L493.26,312.21L493.36,311.92L493.46,289.63L493.76,312.34L494.26,304.05L494.36,311.75L494.46,311.11L494.56,288.14L495.06,312.04L495.36,310.7L495.46,311.33L495.66,313.09L495.76,307.98L496.37,312.08L496.56,311.66L496.66,312.06L496.76,308.58L497.16,312.64L497.46,310.27L497.56,311L498.07,311.93L498.17,308.87L498.27,311.57L498.37,310.12L498.67,311.68L498.77,309.75L499.07,312.73L499.56,306.56L499.66,311.38L499.87,307.7L500.27,309.54L500.37,313.14L500.77,307.76L501.17,309.65L501.27,310.64L501.47,311.77L501.57,309.89L501.67,308.21L502.17,312.42L502.47,311.15L502.57,310.78L502.77,311.79L502.87,310.59L502.97,305.13L503.57,312.7L503.77,309.7L503.87,308.63L504.17,313.1L504.57,311.47L504.67,307.79L505.47,311.86L505.57,312.4L505.67,312.73L505.77,311.49L505.87,312.02L505.97,310.66L506.27,308.33L506.37,312.34L506.57,311.58L506.67,310.09L506.77,312.49L507.37,310.98L507.47,310.8L507.57,313L507.77,309.83L508.17,312.13L508.27,309.06L508.37,312.31L509.07,311.43L509.17,310.96L509.47,307.28L509.57,310.32L509.67,311.9L509.77,308.97L509.97,312.4L510.47,309.24L510.57,312.13L511.17,307.39L511.27,310.65L511.37,311.94L511.47,311.72L511.57,307.88L511.97,311.96L512.37,311.91L512.47,311.78L512.67,308.98L512.97,313.01L513.27,310.34L513.37,312.21L513.77,313.31L514.17,308.97L514.27,310.73L514.47,312.75L514.87,311.66L514.97,310.39L515.17,309.01L515.27,311.34L515.38,308.09L516.17,312.49L516.27,312.23L516.37,312.42L516.67,312.98L517.17,305.95L517.28,312.37L517.58,307.39L517.88,309.34L517.98,312.22L518.08,312.61L518.18,310.9L518.28,308.57L518.38,312.24L519.07,310.3L519.18,311.88L519.28,309.3L519.68,312.32L519.98,309.87L520.08,311.36L520.28,307.19L520.38,313.5L520.68,309.45L520.78,312.51L521.28,308.92L521.48,309.64L521.58,311.69L521.88,306.19L522.18,311.11L522.28,312.72L522.58,309.89L522.98,312.52L523.08,312.39L523.18,310.71L523.68,313.03L523.78,311.95L523.88,312.13L524.08,312.6L524.68,309.57L524.78,311.04L524.88,312.87L525.38,310.86L525.58,312.2L525.68,310.77L525.78,310.35L525.98,312.36L526.18,311.67L526.28,311.59L526.38,308.39L526.48,312.01L526.98,310.41L527.08,313.05L527.78,308.74L527.88,311.53L527.98,312.08L528.18,310.2L528.28,309.48L528.48,313.11L528.58,308.19L528.78,306.82L529.28,313.4L529.48,312.82L529.58,312.37L530.18,310.87L530.28,311.27L530.38,312.47L530.88,311.35L530.98,311.73L531.08,312.79L531.18,313.03L531.38,312.73L531.48,311.1L531.58,308.51L531.78,312.19L532.18,311.74L532.28,310.89L532.48,310.14L532.89,312.47L533.08,312.02L533.18,310L533.38,309.32L533.98,312.68L534.08,312.35L534.58,308.17L534.79,311.61L534.89,312.22L535.49,312.61L535.59,308.97L535.69,313.37L535.88,309.48L536.38,311.6L536.48,312.54L537.09,312.96L537.19,310.59L537.29,312.25L537.39,312.6L537.49,312.47L537.59,309.43L537.99,312.35L538.39,311.86L538.49,308.3L539.19,312.95L539.29,312.1L539.39,311.65L539.59,312.61L539.69,310.72L540.09,312.1L540.19,311.3L540.89,312.88L540.99,312.16L541.09,309.01L541.19,313.33L541.39,306.08L541.89,311.44L541.99,310.52L542.19,312.87L542.29,310.19L542.59,311.42L542.69,308.71L542.89,312.83L543.49,311.15L543.59,311.83L543.89,310.3L544.19,312.7L544.29,311.6L544.39,311.83L544.89,312.72L545.19,309.87L545.29,312.44L545.49,307.46L545.59,312.57L545.89,309.94L545.99,311.86L546.09,312.1L546.19,310.04L546.39,308.46L546.49,312.34L546.59,313.33L547.19,310.28L547.29,311.98L547.39,312.83L547.59,313.37L547.89,308.84L548.19,311.65L548.29,311.76L548.39,307.99L548.79,312.85L548.99,308.11L549.09,312.87L549.49,309.13L549.59,312.52L549.69,310.08L550.29,312.15L550.39,311.75L550.79,310.1L550.99,313.47L551.09,312.48L551.19,311.67L551.29,312.81L551.49,310.78L551.59,312.77L551.69,306.95L552.3,312.1L552.4,289.57L552.89,312.56L553.19,311.97L553.29,312.35L553.79,313.41L553.89,309.03L553.99,312.95L554.5,309.71L554.7,312.64L554.8,312.97L555.39,309L555.49,312.96L555.59,312.16L556.4,308.3L556.5,312.56L556.8,312.67L557.3,303.08L557.4,312.74L557.8,312.84L558.3,310.25L558.4,311.95L558.6,312.2L558.8,308.38L559.2,310.15L559.3,310.98L559.6,313.28L559.8,308.82L560.1,312.66L560.2,312.84L560.4,311.19L560.7,311.88L560.8,312.46L561,309.23"/></g><g class="points"/><g class="text"/></g></g></g><g class="overplot"/><path class="xlines-above crisp" style="fill: none;" d="M0,0"/><path class="ylines-above crisp" style="fill: none;" d="M0,0"/><g class="overlines-above"/><g class="xaxislayer-above"><g class="xtick"><text text-anchor="middle" x="0" y="403" style="font-family: TOBESTRIPPEDOpen SansTOBESTRIPPED, verdana, arial, sans-serif; font-size: 12px; fill: rgb(68, 68, 68); fill-opacity: 1; white-space: pre;" transform="translate(197.37,0)">50</text></g><g class="xtick"><text text-anchor="middle" x="0" y="403" style="font-family: TOBESTRIPPEDOpen SansTOBESTRIPPED, verdana, arial, sans-serif; font-size: 12px; fill: rgb(68, 68, 68); fill-opacity: 1; white-space: pre;" transform="translate(337.64,0)">100</text></g><g class="xtick"><text text-anchor="middle" x="0" y="403" style="font-family: TOBESTRIPPEDOpen SansTOBESTRIPPED, verdana, arial, sans-serif; font-size: 12px; fill: rgb(68, 68, 68); fill-opacity: 1; white-space: pre;" transform="translate(477.92,0)">150</text></g><g class="xtick"><text text-anchor="middle" x="0" y="403" style="font-family: TOBESTRIPPEDOpen SansTOBESTRIPPED, verdana, arial, sans-serif; font-size: 12px; fill: rgb(68, 68, 68); fill-opacity: 1; white-space: pre;" transform="translate(618.19,0)">200</text></g></g><g class="yaxislayer-above"><g class="ytick"><text text-anchor="end" x="59" y="4.199999999999999" style="font-family: TOBESTRIPPEDOpen SansTOBESTRIPPED, verdana, arial, sans-serif; font-size: 12px; fill: rgb(68, 68, 68); fill-opacity: 1; white-space: pre;" transform="translate(0,376.01)">0</text></g><g class="ytick"><text text-anchor="end" x="59" y="4.199999999999999" style="font-family: TOBESTRIPPEDOpen SansTOBESTRIPPED, verdana, arial, sans-serif; font-size: 12px; fill: rgb(68, 68, 68); fill-opacity: 1; white-space: pre;" transform="translate(0,336.65)">0.2</text></g><g class="ytick"><text text-anchor="end" x="59" y="4.199999999999999" style="font-family: TOBESTRIPPEDOpen SansTOBESTRIPPED, verdana, arial, sans-serif; font-size: 12px; fill: rgb(68, 68, 68); fill-opacity: 1; white-space: pre;" transform="translate(0,297.3)">0.4</text></g><g class="ytick"><text text-anchor="end" x="59" y="4.199999999999999" style="font-family: TOBESTRIPPEDOpen SansTOBESTRIPPED, verdana, arial, sans-serif; font-size: 12px; fill: rgb(68, 68, 68); fill-opacity: 1; white-space: pre;" transform="translate(0,257.94)">0.6</text></g><g class="ytick"><text text-anchor="end" x="59" y="4.199999999999999" style="font-family: TOBESTRIPPEDOpen SansTOBESTRIPPED, verdana, arial, sans-serif; font-size: 12px; fill: rgb(68, 68, 68); fill-opacity: 1; white-space: pre;" transform="translate(0,218.58)">0.8</text></g><g class="ytick"><text text-anchor="end" x="59" y="4.199999999999999" style="font-family: TOBESTRIPPEDOpen SansTOBESTRIPPED, verdana, arial, sans-serif; font-size: 12px; fill: rgb(68, 68, 68); fill-opacity: 1; white-space: pre;" transform="translate(0,179.22)">1</text></g><g class="ytick"><text text-anchor="end" x="59" y="4.199999999999999" style="font-family: TOBESTRIPPEDOpen SansTOBESTRIPPED, verdana, arial, sans-serif; font-size: 12px; fill: rgb(68, 68, 68); fill-opacity: 1; white-space: pre;" transform="translate(0,139.86)">1.2</text></g><g class="ytick"><text text-anchor="end" x="59" y="4.199999999999999" style="font-family: TOBESTRIPPEDOpen SansTOBESTRIPPED, verdana, arial, sans-serif; font-size: 12px; fill: rgb(68, 68, 68); fill-opacity: 1; white-space: pre;" transform="translate(0,100.50999999999999)">1.4</text></g><g class="ytick"><text text-anchor="end" x="59" y="4.199999999999999" style="font-family: TOBESTRIPPEDOpen SansTOBESTRIPPED, verdana, arial, sans-serif; font-size: 12px; fill: rgb(68, 68, 68); fill-opacity: 1; white-space: pre;" transform="translate(0,61.15)">1.6</text></g></g><g class="overaxes-above"/></g></g><g class="polarlayer"/><g class="ternarylayer"/><g class="geolayer"/><g class="pielayer"/><g class="glimages"/><defs id="topdefs-95f618"><g class="clips"/><clipPath id="legend95f618"><rect width="56" height="29" x="0" y="0"/></clipPath></defs><g class="layer-above"><g class="imagelayer"/><g class="shapelayer"/></g><g class="infolayer"><g class="legend" pointer-events="all" transform="translate(632.22, 60)"><rect class="bg" shape-rendering="crispEdges" style="stroke: rgb(68, 68, 68); stroke-opacity: 1; fill: rgb(255, 255, 255); fill-opacity: 1; stroke-width: 0px;" width="56" height="29" x="0" y="0"/><g class="scrollbox" transform="translate(0, 0)" clip-path="url(#legend95f618)"><g class="groups"><g class="traces" style="opacity: 1;" transform="translate(0, 14.5)"><g class="layers" style="opacity: 1;"><g class="legendfill"/><g class="legendlines"><path class="js-line" d="M5,0h30" style="fill: none; stroke: rgb(31, 119, 180); stroke-opacity: 1; stroke-width: 2px;"/></g><g class="legendsymbols"><g class="legendpoints"/></g></g><text class="legendtext user-select-none" text-anchor="start" style="font-family: TOBESTRIPPEDOpen SansTOBESTRIPPED, verdana, arial, sans-serif; font-size: 12px; fill: rgb(68, 68, 68); fill-opacity: 1; white-space: pre;" x="40" y="4.680000000000001">G</text><rect class="legendtoggle" style="cursor: pointer; fill: rgb(0, 0, 0); fill-opacity: 0;" pointer-events="all" x="0" y="-9.5" width="96" height="19"/></g></g></g><rect class="scrollbar" rx="20" ry="3" width="0" height="0" style="fill: rgb(128, 139, 164); fill-opacity: 1;" x="0" y="0"/></g><g class="g-gtitle"><text class="gtitle" style="font-family: TOBESTRIPPEDOpen SansTOBESTRIPPED, verdana, arial, sans-serif; font-size: 17px; fill: rgb(68, 68, 68); opacity: 1; font-weight: normal; white-space: pre;" x="350" y="30" text-anchor="middle">seg_l2 loss over time</text></g><g class="g-xtitle"><text class="xtitle" style="font-family: TOBESTRIPPEDOpen SansTOBESTRIPPED, verdana, arial, sans-serif; font-size: 14px; fill: rgb(68, 68, 68); opacity: 1; font-weight: normal; white-space: pre;" x="340.5" y="442" text-anchor="middle">epoch</text></g><g class="g-ytitle"><text class="ytitle" transform="rotate(-90,22,225)" style="font-family: TOBESTRIPPEDOpen SansTOBESTRIPPED, verdana, arial, sans-serif; font-size: 14px; fill: rgb(68, 68, 68); opacity: 1; font-weight: normal; white-space: pre;" x="22" y="225" text-anchor="middle">loss</text></g></g></svg>