<svg class="main-svg" xmlns="http://www.w3.org/2000/svg" xmlns:xlink="http://www.w3.org/1999/xlink" width="700" height="450" style="" viewBox="0 0 700 450"><rect x="0" y="0" width="700" height="450" style="fill: rgb(255, 255, 255); fill-opacity: 1;"/><defs id="defs-8c3e02"><g class="clips"><clipPath id="clip8c3e02xyplot" class="plotclip"><rect width="561" height="330"/></clipPath><clipPath class="axesclip" id="clip8c3e02x"><rect x="60" y="0" width="561" height="450"/></clipPath><clipPath class="axesclip" id="clip8c3e02y"><rect x="0" y="60" width="700" height="330"/></clipPath><clipPath class="axesclip" id="clip8c3e02xy"><rect x="60" y="60" width="561" height="330"/></clipPath></g><g class="gradients"/></defs><g class="bglayer"><rect class="bg" x="60" y="60" width="561" height="330" style="fill: rgb(255, 255, 255); fill-opacity: 1; stroke-width: 0;"/></g><g class="layer-below"><g class="imagelayer"/><g class="shapelayer"/></g><g class="cartesianlayer"><g class="subplot xy"><g class="layer-subplot"><g class="shapelayer"/><g class="imagelayer"/></g><g class="gridlayer"><g class="x"><path class="xgrid crisp" d="M0,60v330" transform="translate(197.37,0)" style="stroke: rgb(238, 238, 238); stroke-opacity: 1; stroke-width: 1px;"/><path class="xgrid crisp" d="M0,60v330" transform="translate(337.64,0)" style="stroke: rgb(238, 238, 238); stroke-opacity: 1; stroke-width: 1px;"/><path class="xgrid crisp" d="M0,60v330" transform="translate(477.92,0)" style="stroke: rgb(238, 238, 238); stroke-opacity: 1; stroke-width: 1px;"/><path class="xgrid crisp" d="M0,60v330" transform="translate(618.19,0)" style="stroke: rgb(238, 238, 238); stroke-opacity: 1; stroke-width: 1px;"/></g><g class="y"><path class="ygrid crisp" d="M60,0h561" transform="translate(0,383.77)" style="stroke: rgb(238, 238, 238); stroke-opacity: 1; stroke-width: 1px;"/><path class="ygrid crisp" d="M60,0h561" transform="translate(0,328.23)" style="stroke: rgb(238, 238, 238); stroke-opacity: 1; stroke-width: 1px;"/><path class="ygrid crisp" d="M60,0h561" transform="translate(0,272.68)" style="stroke: rgb(238, 238, 238); stroke-opacity: 1; stroke-width: 1px;"/><path class="ygrid crisp" d="M60,0h561" transform="translate(0,217.14)" style="stroke: rgb(238, 238, 238); stroke-opacity: 1; stroke-width: 1px;"/><path class="ygrid crisp" d="M60,0h561" transform="translate(0,161.59)" style="stroke: rgb(238, 238, 238); stroke-opacity: 1; stroke-width: 1px;"/><path class="ygrid crisp" d="M60,0h561" transform="translate(0,106.05)" style="stroke: rgb(238, 238, 238); stroke-opacity: 1; stroke-width: 1px;"/></g></g><g class="zerolinelayer"/><path class="xlines-below"/><path class="ylines-below"/><g class="overlines-below"/><g class="xaxislayer-below"/><g class="yaxislayer-below"/><g class="overaxes-below"/><g class="plot" transform="translate(60, 60)" clip-path="url(#clip8c3e02xyplot)"><g class="scatterlayer mlayer"><g class="trace scatter trace0f1288" style="stroke-miterlimit: 2; opacity: 1;"><g class="fills"/><g class="errorbars"/><g class="lines"><path class="js-line" style="vector-effect: non-scaling-stroke; fill: none; stroke: rgb(31, 119, 180); stroke-opacity: 1; stroke-width: 2px; opacity: 1;" d="M0,210.84L0.2,145.27L0.8,269.83L0.9,232.26L1.1,194.65L1.2,244.7L1.3,211.68L1.4,185.83L1.6,144.5L2.1,273.81L2.2,182.63L2.9,270.85L3,191.83L3.1,190.89L3.2,202.51L3.4,282.45L3.9,259.03L4,213.03L4.5,153.25L4.8,267.74L4.9,255.95L5.11,227.74L5.21,159.21L5.8,145.1L5.9,272.25L6,263.29L6.1,206.79L6.7,295.46L6.8,228.63L6.91,236.46L7.21,223.94L7.41,291.92L7.51,286.44L7.61,215.82L7.71,203.66L7.81,273.55L7.91,266.06L8.01,271.81L8.4,281.47L8.6,226.06L8.81,249.4L8.91,236.94L9.11,280.15L9.31,213.64L9.61,222.68L9.71,225.2L10.31,179.55L10.41,288.69L10.51,276.94L10.61,152.23L10.91,283.23L11.41,246.6L11.51,186.17L12.01,180.64L12.11,273.49L12.51,271.17L12.61,261.72L13.01,216.6L13.11,291.19L13.31,296.11L13.81,227.73L13.91,243.86L14.01,275.69L14.11,228.78L14.41,284.23L14.71,270.29L14.81,284.43L15.61,166.2L15.71,221.65L16.01,195.33L16.11,266.28L16.31,250.97L16.41,192.4L16.51,283.54L17.21,261.99L17.31,260.22L17.41,287.97L17.51,230.88L17.71,237.3L17.81,175.28L18.51,294L18.61,229.82L18.71,241.31L19.21,282.52L19.41,280.76L19.51,162.92L20.31,277.78L20.41,289.38L20.71,128.98L21.01,290.62L21.11,187.22L21.21,261.98L21.31,145.45L21.41,289.54L21.91,219.79L22.01,280.9L22.41,225.66L22.81,231.32L22.91,286.03L23.21,294.6L23.51,198.2L23.61,274.77L23.71,282.28L23.91,159.44L24.01,275.16L24.31,236.69L24.52,278.57L24.82,252.21L24.92,275.06L25.12,283.65L25.31,181.36L25.61,192.8L25.71,278.98L25.81,279.69L25.91,277.22L26.01,245.91L26.32,171.96L26.82,290.3L26.92,281.5L27.22,290.06L27.32,242.96L27.62,258.53L27.72,289.04L28.11,234.23L28.42,252.76L28.52,299.19L29.02,173.78L29.32,238.93L29.42,292.08L29.52,171.15L30.22,225.75L30.32,271.01L30.42,281.77L30.82,254.99L30.92,251.3L31.22,285.63L31.42,208.83L31.52,149.27L32.32,284.05L32.42,247.18L32.52,276.57L32.62,174.24L33.12,232.58L33.22,192.46L33.62,295.52L33.82,88.52L34.02,238.63L34.12,273.29L34.32,233.85L34.42,289.15L34.82,240.79L34.92,256.8L35.12,286.14L35.22,179.61L36.12,280.65L36.22,277.51L36.52,220.77L36.72,255.77L36.82,292.42L36.92,231.56L37.62,252.49L37.72,254.64L37.82,141.46L38.32,284.58L38.42,239.87L38.52,213.39L38.62,279.39L38.92,144.51L39.32,251.83L39.42,252.71L39.72,249.31L39.82,283.65L39.92,246.01L40.42,217.03L40.72,299.42L40.82,282.53L40.92,291.95L41.12,248.48L41.22,266.4L41.32,248.63L41.52,288.08L41.93,279.89L42.02,237.43L42.12,288.98L42.62,217.48L42.72,281.28L42.82,251.89L42.92,300.37L43.42,246.01L43.52,279.36L43.62,257.24L43.93,218.28L44.13,283.46L44.23,273.41L44.33,227.54L44.63,191.85L45.02,281.94L45.12,277.32L45.22,217.75L45.42,282.63L45.93,218.97L46.03,252.51L46.33,287.51L46.63,240.34L46.73,201.38L46.83,272.56L47.13,168.5L47.53,240.55L47.63,252.85L47.73,195.12L48.03,286.67L48.33,256.84L48.43,267.08L48.93,219.85L49.03,292.7L49.13,252.44L49.23,236.59L49.63,271.63L49.73,270.95L49.83,274.42L50.13,260.21L50.43,296.83L50.53,239.12L50.73,233.75L51.23,285.02L51.33,261.5L51.43,225.79L51.73,197.18L51.93,288.2L52.23,262.72L52.33,280.9L52.63,171.33L53.03,214.54L53.13,251.64L53.43,286.1L53.53,196.26L53.73,279.83L53.83,204.62L54.03,171L54.43,295.27L54.63,281.28L54.73,273.53L55.03,286.82L55.23,215.22L55.43,216.47L55.53,278.79L55.63,275.7L55.73,287.36L55.83,238.3L56.03,237.97L56.13,289.36L56.23,270.15L56.33,252.52L56.53,218.6L56.63,288.84L57.13,279.22L57.23,242.06L57.53,294.6L57.63,228.6L58.03,268.5L58.13,299.1L58.53,142.91L58.93,254.87L59.03,278.23L59.43,234.4L59.63,273.22L59.73,272.94L59.83,286.86L59.93,226.1L60.23,271.12L60.33,250.94L60.43,296.41L60.93,237.79L61.03,255.48L61.13,170.74L61.34,296.94L61.93,274.46L62.03,269.55L62.23,258.56L62.53,286.27L62.63,281.28L62.73,259.45L62.83,183.21L63.44,274.12L63.54,220.99L63.74,297.24L64.14,296.58L64.24,181.57L64.43,163.51L64.53,301.17L65.03,252.63L65.14,222.43L65.74,193.7L65.94,289.73L66.04,223.97L66.34,279L66.44,252.11L66.54,182.96L67.14,282.58L67.34,259.69L67.44,258.11L67.74,300.1L68.14,200.15L68.24,289.2L68.34,227.63L68.94,260.2L69.04,294.97L69.24,106.16L69.44,268.01L69.54,262.75L69.64,265.02L69.74,241.43L69.84,260.26L69.94,233.89L70.04,16.5L70.64,297.58L70.84,291.81L70.94,251.04L71.04,290.23L71.54,234.14L71.64,283.53L71.74,256.09L71.94,206.45L72.34,285.99L72.54,269.06L72.64,246.13L72.94,201.31L73.44,299.23L73.54,278.52L73.64,282.93L73.84,293.94L74.04,256.04L74.34,259.65L74.44,298.34L74.54,187.11L75.14,257.48L75.24,265.98L75.34,120.03L75.54,288.98L75.94,284.34L76.04,241.98L76.14,281.22L76.44,200.39L76.74,279.36L76.84,255.57L76.94,287.17L77.44,247.79L77.54,286.39L77.64,268.37L77.84,267.25L77.94,294.83L78.04,238.24L78.54,275.63L78.64,203.16L78.84,258.05L78.94,227.33L79.04,200.83L79.44,280.43L79.54,287.74L79.74,288.88L79.84,190.77L80.34,249.48L80.44,272.53L80.85,279.75L81.15,204.42L81.25,244.43L81.74,238.78L81.84,295.39L82.04,292.59L82.14,196.91L82.65,296.25L82.95,268.35L83.05,274.13L83.15,286.58L83.25,180.13L83.45,292.8L83.85,175.71L84.14,271.51L84.24,268.64L84.65,231.46L84.85,277.65L84.95,290.14L85.05,297.84L85.35,265.42L85.45,214.25L86.15,293.11L86.25,268.51L86.35,273.01L86.45,279.8L86.55,233.44L86.75,293.21L87.35,267.95L87.45,255.62L87.55,253.25L87.65,268.49L87.75,243.84L87.85,296.79L87.95,200.09L88.55,286.93L88.65,106.75L89.05,284.23L89.45,241.31L89.55,287.49L89.95,220.66L90.15,300.25L90.25,271.01L90.35,283.34L90.45,289.33L90.65,278.39L90.75,228.96L90.85,215.39L90.95,275.8L91.15,260.66L91.25,293.53L92.05,246.78L92.15,288.98L92.35,293.3L92.75,246.09L93.05,258.39L93.15,271.46L93.55,268.61L93.75,289.36L93.85,248.14L94.25,294.46L94.45,215.97L94.65,278.69L94.75,289.22L95.35,232.43L95.45,258.02L95.55,280.73L95.65,272.87L95.95,301.12L96.25,278.57L96.35,294.28L96.65,189.19L97.05,258.11L97.15,294.25L97.85,182.6L97.95,206.78L98.05,287.98L98.45,229.07L98.75,287.96L98.85,276.43L99.25,252.31L99.35,294.06L99.55,281.84L99.65,269.1L100.05,220.8L100.36,297.27L100.46,264.75L100.86,296.59L100.95,249.26L101.05,257.09L101.15,250.65L101.55,228.05L101.85,293.96L101.96,252.02L102.16,215.59L102.66,297.4L102.76,293.94L102.86,281.49L102.96,221.01L103.16,286.24L103.66,243.38L103.75,281.73L103.96,172.58L104.16,297.25L104.46,283.65L104.56,272.61L104.96,265.71L105.06,292.58L105.16,214.17L105.56,301.14L105.96,290.48L106.06,255.68L106.16,226.46L106.56,293.27L106.66,283.4L106.76,283.17L106.96,289.5L107.46,237.73L107.56,263.87L107.66,288.6L108.36,288.99L108.56,226.69L108.66,280.47L108.96,293.56L109.36,235.1L109.46,296.01L109.86,250.85L110.06,284.52L110.16,297.53L111.06,233.18L111.16,265.88L111.26,295.88L111.36,254.82L111.86,276.87L111.96,260.62L112.46,259.51L112.56,293.66L112.66,206.33L112.76,280.5L113.46,273.95L113.56,266.67L113.66,274.08L113.76,189.28L114.16,291.53L114.56,279.66L114.66,260.35L114.96,289.17L115.06,198.41L115.46,273.24L115.56,281.75L115.76,292.28L115.96,209.82L116.16,276.19L116.26,292.18L116.66,293.66L116.96,238.22L117.06,272.97L117.16,273.98L117.26,271.75L117.36,242.26L117.67,276.71L117.86,276.7L117.96,211.81L118.76,295.94L118.86,287.67L118.96,286.06L119.06,293.04L119.16,245.5L119.26,248.17L119.36,277.66L119.47,297.98L119.87,262.9L120.07,279.32L120.17,278.77L120.47,261.63L120.66,290.86L120.76,297.68L121.37,260.74L121.47,275.61L121.57,297.42L121.77,247.24L122.17,289.7L122.27,295.29L122.37,236.65L122.97,246.95L123.07,290.53L123.57,292.22L123.87,254.81L123.97,288.09L124.07,243.88L124.27,297.33L124.67,286.24L124.77,282.12L125.17,293.91L125.47,253.6L125.57,272.11L125.67,252.86L126.17,298.45L126.27,288.31L126.37,287.34L126.47,269.9L126.57,298.91L126.67,245.05L127.17,266.28L127.27,283.26L127.37,283.74L127.47,281.34L127.57,270.12L127.67,257.48L127.77,296.05L128.07,274.19L128.17,293.49L128.27,299.23L128.37,286.29L128.57,291.08L128.67,277.09L128.77,173.38L129.27,295.58L129.37,291.58L129.47,287.69L129.57,295.01L130.07,280.81L130.17,273.64L130.47,302.14L130.57,255.1L130.87,288.1L130.97,253.74L131.17,299.51L131.37,247.15L131.57,292.14L131.67,233.96L132.17,283.55L132.47,263.3L132.57,240.12L132.97,293.82L133.37,283.16L133.47,279.22L133.57,257.21L133.97,293.84L134.17,289.26L134.27,280.99L134.67,206.93L134.97,293.07L135.07,276.33L135.27,296.53L135.47,253.2L135.67,293.06L135.77,251.13L135.97,297.55L136.57,286.41L136.67,295.04L137.37,268.65L137.47,289.15L137.57,285.26L137.67,286.12L137.77,281.36L137.87,193.25L138.57,295.43L138.67,271.96L138.77,290.39L138.88,294.64L139.08,287.55L139.18,250.9L139.38,293.44L139.68,242.74L139.98,284.16L140.08,279.75L140.18,253.48L140.27,294.08L140.78,272.92L140.88,293.74L140.98,272.36L141.48,294.64L141.68,275.53L141.78,270.45L142.08,297.51L142.58,276.91L142.68,274.38L142.88,255.67L143.18,299.89L143.38,290.23L143.48,272.14L143.58,288.92L143.78,262.57L144.08,266.5L144.18,253.69L144.98,292.92L145.08,284.28L145.48,305.77L145.78,296.29L145.88,266.26L146.38,301.13L146.58,296.81L146.68,275.08L146.78,280.16L146.88,242.54L147.48,293.7L147.78,288.78L147.88,279.03L147.98,297.75L148.58,273.8L148.68,228.73L148.88,304.27L149.48,285.04L149.58,276.95L149.88,301.2L150.18,286.9L150.28,267.31L150.78,241.48L151.18,302.11L151.28,290.41L151.48,260.08L151.68,292.3L151.98,287.04L152.08,289.61L152.38,292.31L152.78,255.96L152.88,276.38L152.98,294.69L153.18,293.8L153.28,264.86L153.38,299.71L154.08,296.46L154.18,271.61L154.38,302.61L154.98,302.6L155.08,295.43L155.38,299.08L155.78,273.36L155.88,288.38L155.98,296.31L156.08,262.11L156.69,281.81L156.79,293.02L157.28,269.38L157.38,299.9L157.48,289.52L157.58,297.3L157.68,298.23L157.78,285.19L157.98,300.36L158.08,268.19L158.49,295L158.59,287.92L158.69,267.18L159.29,290.46L159.39,288.57L159.69,298.26L159.79,285.07L159.98,291.93L160.08,271.7L160.69,302.18L160.79,285.11L160.89,259.26L161.69,292.17L161.79,284.03L161.89,302.19L162.09,251.47L162.39,297.02L162.49,269.1L162.79,299.15L163.49,297.8L163.59,299.43L164.39,197.19L164.49,286.55L164.59,276.2L164.89,296.03L165.19,289.73L165.29,287.16L165.39,265.94L165.49,299.07L165.99,294.02L166.09,296.27L166.19,296.92L166.29,294.46L166.39,301.13L166.89,274.79L167.19,282.68L167.29,290.6L167.39,281.29L167.49,200.75L168.19,304.05L168.29,289.69L168.39,295.04L168.79,303.36L168.89,280.6L168.99,304.72L169.49,221.4L169.79,289.76L169.89,302.69L169.99,299.87L170.09,261.61L170.39,305.79L170.89,294.95L170.99,298.24L171.09,302.21L171.39,295.46L171.49,286.86L171.69,276.44L172.19,299.51L172.29,293.3L172.39,296.76L172.99,300.29L173.19,269.47L173.29,290.34L173.69,292.43L173.89,280.19L173.99,298.18L174.19,300.78L174.29,292.5L174.39,292.94L174.49,283.78L174.69,304.86L175.19,292.41L175.29,270.88L175.39,304.86L176,297.76L176.1,287.87L176.69,285.52L176.89,300.03L176.99,290.68L177.19,284.83L177.29,299.66L177.7,273.99L177.8,302.53L178,300.13L178.1,296.66L178.4,299.35L178.7,283.19L178.8,302.57L178.9,299.97L179,273.31L179.2,254L179.7,298.93L179.8,250.76L179.9,303.95L180.6,301.05L180.7,294.69L180.8,298.15L180.9,261.21L181,304.18L181.4,205.09L181.7,291.97L181.8,283.29L182.2,273.24L182.4,301.55L182.6,292.67L182.7,296.81L182.8,296.93L182.9,292.55L183.5,304.72L183.6,286.34L183.8,301.87L184.4,293.37L184.5,279.72L185.1,273.67L185.2,300.72L185.3,298.89L185.4,296.57L185.6,285.25L185.9,304.55L186,294.85L186.1,273.63L186.6,302.7L186.9,300.45L187,284.75L187.7,304.87L187.8,296.1L187.9,292.01L188,292.99L188.1,268.32L188.9,300.95L189,296.01L189.1,266.28L189.4,302.84L189.7,298.59L189.8,297.81L189.9,282.39L190.5,293.65L190.6,294.3L190.9,287.6L191.1,305.79L191.4,298.26L191.5,294.84L191.6,297.89L191.7,297.02L191.8,280.91L191.9,291.69L192,214.69L192.6,299.21L192.8,297.75L192.9,288.26L193.41,298.79L193.5,292.37L193.6,279.78L193.9,279.12L194.4,307L194.5,292.88L195,303.45L195.1,290.72L195.21,298.97L195.31,295.86L195.41,297.75L195.51,281.22L195.61,306.39L196.3,300.18L196.4,304.7L196.8,291.48L197.21,291.75L197.31,296.48L197.51,280.3L197.71,301.52L197.81,282.71L197.91,304.43L198.31,255.54L198.51,300.49L198.61,302.71L198.91,286.19L199.21,305.46L199.41,295.31L199.51,300.37L199.81,281.17L199.91,292.92L200.01,299.26L200.11,287.89L200.21,304.49L200.71,296.38L200.81,300.78L201.01,302.34L201.11,296.54L201.31,287.85L201.41,299.72L201.51,296.39L201.61,299.29L201.71,303.87L201.91,290.04L202.21,297.14L202.31,294.01L202.81,291.2L203.11,305.41L203.21,303.71L203.31,293.98L203.51,303.67L203.61,285.99L204.11,285.31L204.21,301.74L204.41,295.18L204.51,297.7L204.61,296.91L204.71,301.8L204.81,290.16L205.51,304.17L205.61,294.22L205.81,293.38L206.01,305.21L206.31,298.34L206.41,297.17L206.71,303.34L206.81,291.79L207.01,297.87L207.11,293.12L207.41,299.34L207.51,286.75L207.61,300.86L207.71,291.7L208.11,308.51L208.31,298.5L208.41,299.97L208.51,283.25L208.71,301.42L209.11,294.65L209.21,296.43L209.71,283.83L209.81,298.41L210.01,285.48L210.11,296.74L210.51,300.96L210.91,287.82L211.01,290.54L211.11,302.4L211.21,215.51L211.71,303.29L212.01,293.05L212.11,296.07L212.21,293.97L212.31,299.51L212.41,305.99L213.02,291.61L213.31,299.13L213.41,298.95L213.51,292.28L213.81,302.91L214.11,298.53L214.21,301.59L214.41,298.64L214.51,304.01L214.62,292.16L214.72,304.72L214.92,287.4L215.42,298.64L215.52,294.68L216.11,308.99L216.42,305.51L216.52,302.98L217.12,290.06L217.22,296.75L217.32,302.8L217.72,304.8L218.02,296.29L218.12,304.34L218.92,293.41L219.02,300.91L219.32,302.21L219.72,292.16L219.82,293.95L219.92,299.09L220.02,305.86L220.52,294.38L220.62,294.04L221.12,293.78L221.32,306.33L221.42,288.61L221.52,301.86L222.22,299.85L222.32,296.63L222.72,289.84L222.82,301.28L222.92,298.83L223.02,289.54L223.82,304.38L223.92,293.68L224.12,288.4L224.22,305.66L225.02,295.09L225.12,306.86L225.42,292.03L225.82,301.6L225.92,305.96L226.82,292.48L226.92,299.88L227.02,300.24L227.12,306.32L228.02,268.45L228.12,290.39L228.22,298.95L228.62,301.63L229.02,280.59L229.12,292.12L229.22,294.73L229.52,294.04L230.12,302.91L230.22,295.14L230.32,293.34L230.42,296.88L230.52,304.39L230.62,303.14L230.72,289.63L231.12,305.46L231.22,285.09L231.52,300.51L231.62,299L232.13,301.76L232.23,293.43L232.33,297.56L232.43,301.73L232.82,295.76L232.92,303.16L233.12,296.44L233.22,303.68L233.82,308.04L233.93,268.25L234.03,295.16L234.13,303.09L234.33,296.13L234.73,304.37L234.93,298.33L235.03,302.74L235.72,291.66L235.93,297.32L236.03,305.1L236.33,306.13L236.43,281.23L236.63,285.99L236.73,301.07L236.83,300.7L236.93,294.8L237.03,303.08L237.73,300.7L237.83,290.52L238.23,287.42L238.33,305.59L238.63,304.37L238.73,298.85L238.93,295.28L239.53,308.18L239.63,307.4L239.73,299.08L240.33,306.76L240.43,298.7L240.53,306.73L240.63,293.42L240.73,307.3L241.43,305.04L241.53,294.19L241.63,294.79L241.73,304.4L242.03,295.59L242.33,299.41L242.43,299.56L242.53,298.69L242.63,303.12L242.73,306.31L242.83,291.8L243.43,299.28L243.53,299.73L243.83,303.06L244.03,292.27L244.13,298.09L244.23,303.8L244.53,304.32L244.93,295.65L245.03,297.87L245.13,297.29L245.23,288.95L245.53,302.71L245.73,302.16L245.83,303.77L246.03,303.87L246.13,280.95L246.23,305.04L246.63,307.01L246.83,294.79L247.03,300.03L247.13,306L247.43,306.38L247.63,295.47L247.93,301.46L248.03,306.68L248.13,292.98L248.23,309.08L248.83,297.91L248.93,293.6L249.43,307.9L249.73,300.23L249.83,299.81L250.53,308.14L250.63,303.87L250.73,300.44L251.03,295.09L251.33,306.13L251.54,305.4L251.64,306.11L251.94,294.15L252.04,306.31L252.34,304.87L252.43,304.21L252.63,297.11L252.73,304.6L252.83,278.72L253.54,308.46L253.64,306.1L253.74,300.99L254.04,305.33L254.14,297.92L254.54,303.36L254.64,303.59L254.94,302.08L255.04,306.73L255.14,300.31L255.34,306.37L255.44,301.2L255.64,303.14L255.84,301.64L255.94,299.57L256.14,291.5L256.54,304.56L256.74,301.04L256.84,301.16L257.04,307.58L257.54,305.66L257.64,301.06L257.74,297.8L257.84,304.87L258.24,297.92L258.34,309.56L258.64,291.37L259.04,305.22L259.14,302.69L259.24,303.89L259.44,300.15L259.54,302.54L259.64,299.33L260.24,295.78L260.44,305.49L260.54,300.36L260.74,306.21L260.94,296.15L261.24,301.82L261.34,295.96L261.54,307.25L261.94,300.56L262.04,291.42L262.14,304.62L262.84,304.37L262.94,304.87L263.14,306.84L263.24,302.87L263.34,301.71L263.44,306.46L263.84,299.18L263.94,305.29L264.04,297.48L264.64,308.54L264.74,303.13L264.84,299.37L265.14,298.65L265.54,304.75L265.64,302.98L265.74,302.41L265.84,303.56L265.94,302.14L266.04,296.09L266.44,307.44L266.74,299.26L266.84,299.09L267.34,295.52L267.44,306.09L267.64,302.38L267.74,300.48L267.94,293.09L268.44,308.26L268.54,299.96L268.64,296.61L269.05,306.37L269.15,304.51L269.24,307.91L269.54,308.12L269.84,296.83L269.94,300.8L270.04,306.01L270.14,308.65L270.24,301.57L270.74,304.73L270.85,305.87L270.95,306.1L271.05,304.84L271.15,304.97L271.25,303.24L271.35,306.18L271.75,301.56L271.95,304.74L272.04,303.25L272.14,302.87L272.24,305.18L272.34,280.67L272.95,306.77L273.15,298.02L273.25,304.23L273.35,301.07L273.45,305.78L273.95,301.45L274.05,306.88L274.95,295.77L275.05,305.48L275.15,306.01L275.55,304.91L275.65,292.78L276.35,307.65L276.45,304.53L276.55,302.09L276.65,301.8L276.75,302.39L276.85,308.27L277.45,297.01L277.55,308.32L277.65,306.89L277.95,301.68L278.05,309.19L278.35,307.62L278.45,306.96L278.75,302.26L278.85,293.22L279.25,308.87L279.55,303.3L279.65,287.95L280.25,308.11L280.45,303.4L280.55,308.06L281.55,299.53L281.65,306.52L281.85,305.55L281.95,298.42L282.75,306.21L282.85,296.77L283.65,307.44L283.75,302.09L283.85,297.23L284.05,304.17L284.35,303.36L284.45,306.44L284.55,308.3L284.75,303.97L284.85,304.77L284.95,297.85L285.65,309.26L285.75,305.44L285.85,304.38L286.05,305.26L286.25,297.66L286.55,305.15L286.65,305.68L286.95,307.41L287.05,299.62L287.15,306.61L287.25,307.82L287.75,297.49L287.95,306.39L288.05,307.34L288.15,302.45L288.25,309.15L288.76,305.35L288.86,304.6L289.05,307.38L289.15,305.84L289.25,302.19L289.65,307.26L290.05,305.55L290.15,302.39L290.36,300.2L290.96,306.85L291.06,304.36L291.16,307.88L291.36,288.68L291.66,301.55L291.75,301.15L292.46,307.39L292.56,300.09L293.06,308.94L293.16,297.83L293.36,308.68L293.46,304.98L293.66,306.48L293.76,302.31L294.06,301.74L294.56,305.74L294.66,304.96L294.76,310.35L294.86,294.64L295.36,305.35L295.46,305.51L295.76,307.02L295.96,302.07L296.16,305.04L296.26,305.01L296.36,306.24L296.46,303.56L296.56,295.22L296.96,308.26L297.36,305.74L297.46,308.82L297.66,308.85L297.76,307.97L298.36,308.54L298.46,299.04L298.56,301.76L298.66,307.55L298.86,307.83L299.16,301.07L299.26,303.49L299.36,307.74L299.76,290.52L300.06,306.68L300.16,305.81L300.26,307.74L300.46,304.3L300.56,304.98L300.66,282.98L300.76,309.1L301.46,306.17L301.56,300.56L301.76,308.41L301.86,296.45L302.26,306.56L302.36,304.86L302.56,303.52L302.76,307.79L302.96,306.06L303.06,301.92L303.36,306.73L303.76,306.54L303.86,298.07L304.36,310.03L304.76,306.89L304.86,306.63L304.96,308.16L305.16,305.9L305.26,286.45L305.76,307.88L306.06,307.52L306.16,307.67L306.26,309.81L306.66,305.08L306.86,308.01L306.96,302.29L307.06,292.91L307.26,309.53L307.56,304.27L307.66,308.26L307.77,299.43L308.37,300.19L308.47,308.01L308.76,303.95L309.16,309.17L309.26,305.21L309.36,307.49L309.67,309.78L309.77,302.52L309.97,307.64L310.07,306.42L310.17,299.76L310.67,308.97L310.77,306.76L310.87,303.23L311.07,309L311.57,305.25L311.67,303.5L311.97,310.31L312.27,302.34L312.47,308.15L312.57,306.1L312.67,301.34L313.07,308.36L313.27,306.43L313.37,307.78L313.57,304.72L314.17,310.24L314.27,307.51L314.37,306.74L314.47,287.94L314.67,310.68L315.27,309.03L315.37,302.74L315.77,309.05L315.97,301.47L316.07,302.53L316.17,301.94L316.97,309.17L317.07,306.67L317.17,305.48L317.27,308.32L317.67,306.57L317.77,309.66L317.97,298.31L318.17,304.2L318.27,307.03L318.37,307.23L318.47,304.68L318.77,308.23L318.97,303.61L319.17,305.36L319.27,303.78L319.37,298.58L319.77,307.07L319.87,305.32L319.97,309.19L320.47,295.51L320.87,299.43L320.97,305.24L321.37,304.34L321.57,310.75L321.67,302.58L322.07,309.99L322.47,307.83L322.57,308.2L323.17,303.29L323.27,308.48L323.37,307.97L323.67,308.22L323.87,303.11L323.97,304.83L324.07,308.84L324.17,301.72L324.27,309.07L324.87,304.96L324.97,308.47L325.67,309.52L325.77,285.83L325.87,308.11L325.97,302.14L326.17,308.86L326.37,307.16L326.47,223.58L326.97,309.54L327.28,305.2L327.38,306.6L327.58,308.03L327.68,309.74L328.17,304.23L328.27,309.93L328.98,303.96L329.28,304.79L329.38,309.81L329.58,302.15L330.18,306.34L330.28,308.36L330.48,294.78L330.58,307.7L330.88,310.2L331.28,301.91L331.38,305.54L331.48,305.4L331.68,306.72L331.78,308.52L331.98,309.5L332.68,304.99L332.78,305.37L332.88,309.44L333.18,303.59L333.48,308.65L333.58,304.62L333.78,300.63L334.48,310.49L334.58,307.57L334.68,307.24L334.78,309.67L335.08,305.35L335.38,310.24L335.48,305.95L335.58,309.08L336.08,302.67L336.38,307.6L336.48,307.86L336.58,302.29L336.78,308L337.28,305.03L337.38,307.88L337.58,309.92L337.68,305.16L337.88,306.08L337.98,305.56L338.08,310.2L338.58,305.06L338.78,308.28L338.88,307.97L339.08,309.69L339.38,305.01L339.58,308.59L339.68,308.87L340.18,305.52L340.48,306.87L340.58,308.07L340.88,309.9L341.28,305.73L341.38,310.01L341.58,310.51L341.88,303.45L342.18,306.68L342.28,306.27L342.38,310.17L342.88,303.73L343.08,309.95L343.18,304.44L343.38,310.62L343.88,306.14L343.98,306.6L344.18,304.67L344.38,309.51L344.58,304.93L344.69,309.21L344.98,310.48L345.28,301.61L345.38,311.19L345.48,304.37L346.18,307.43L346.28,301.98L346.79,310.49L347.19,309.54L347.29,306.58L347.39,308.66L347.49,280.2L347.69,309.88L348.28,306.2L348.39,305.6L348.99,310.32L349.19,308.66L349.29,305.87L349.49,309.89L349.99,305.12L350.09,308.78L350.19,308.52L350.29,309.15L350.39,307.31L350.49,307.88L350.59,300.99L351.29,309.84L351.39,307.59L351.49,305.97L351.59,310.9L351.89,304.63L352.29,308.99L352.39,307.03L352.59,310.06L352.89,305.98L353.09,307.25L353.19,308.22L353.39,309.63L353.89,305.94L353.99,307.55L354.09,304.86L354.49,309.49L354.59,309.14L354.69,309.09L354.89,310.12L355.39,305.41L355.49,308.86L355.69,306.57L355.79,308.96L356.09,310.33L356.59,306.61L356.69,308.24L356.79,308.59L356.89,306.89L356.99,305.6L357.59,311.08L357.79,307.16L357.89,303.79L358.39,309.38L358.49,302.5L358.59,309.05L358.69,303.77L359.39,310.4L359.59,307.1L359.69,306.8L359.89,310.63L359.99,304.26L360.29,306.38L360.39,305.19L360.99,310.53L361.19,307.44L361.29,309.26L361.89,310.06L361.99,289.23L362.09,309.74L362.19,310.51L362.39,308.28L362.49,308.81L362.59,304.24L363.09,311.12L363.39,308.09L363.49,310.03L363.59,310.25L363.69,309.5L363.79,306.76L364,308.33L364.2,305.19L364.3,301.67L365.19,310.4L365.29,309.17L365.49,306.22L365.9,306.8L366,310.95L366.1,303.84L366.7,308.66L366.8,307.83L366.9,307.5L367,310.43L367.59,310.77L367.69,301.99L367.8,308.61L367.9,309.83L368,303.77L368.7,306.49L368.8,306.14L368.9,302.83L369.3,310.43L369.4,307.88L369.5,308.4L369.7,310.69L369.8,304.77L370.1,309.31L370.2,310.24L370.5,306.78L370.8,310.65L370.9,307.41L371,310.2L371.4,298.37L371.8,303.73L371.9,310.27L372.1,309.65L372.2,304.83L372.6,309.93L373,309.91L373.1,308.47L373.4,305.45L373.5,309.95L373.8,308.36L373.9,309.07L374,310.01L374.1,308.8L374.2,302.26L374.7,310.72L375,307.26L375.1,311.3L375.6,304.43L375.8,309.44L375.9,311.03L376.2,307.69L376.3,311.32L376.4,305.91L377,308.28L377.1,309.34L377.6,310.27L377.8,306.38L377.9,309.01L378.2,305.62L378.4,311.08L378.6,310L378.7,308.86L379.1,304.17L379.2,307.91L379.3,309.39L379.6,309.53L380.3,304.36L380.4,308.88L380.5,305.94L381,310.93L381.2,307.22L381.3,308.01L381.5,306.99L381.6,310.96L382,310.09L382.1,307.31L382.5,305.43L382.7,310.37L382.8,295.48L383.3,309.66L383.61,307.53L383.71,307.23L383.91,309.04L384.01,307.86L384.11,300.53L384.8,311.8L384.9,304.23L385,310.15L385.51,308L385.61,308.82L385.71,310.8L385.81,311.13L385.91,309.14L386.01,304.65L386.81,309.78L386.91,307.04L387.1,303.6L387.31,311.6L387.61,307.93L387.71,307.13L388.01,310.76L388.11,303.32L388.41,309.36L388.51,307.15L389.11,310.04L389.21,305.32L389.51,311.05L389.61,302.13L390.01,308.97L390.11,308.21L390.21,311.2L390.61,305.94L390.81,309.13L390.91,308.24L391.51,310.94L391.61,307.72L391.71,307.32L391.81,306.4L392.11,309.35L392.21,310.32L393.01,308.1L393.11,309.1L393.21,311.53L393.31,306.57L393.81,308.39L393.91,309.46L394.31,306.53L394.61,309.92L394.71,307.72L394.81,308.52L394.91,308.74L395.01,303.81L395.61,309.68L395.81,306.67L395.91,307.83L396.01,304.87L396.21,310.21L396.61,306.79L396.71,309.21L396.91,311.19L397.11,305.99L397.21,309.5L397.31,303.28L397.91,311.47L398.01,305.67L398.11,303.34L398.51,310.94L398.91,310L399.01,308.16L399.11,307.37L399.41,310.81L399.51,311.26L399.81,311.64L400.21,307.45L400.31,309.79L400.51,311.08L400.61,309.47L400.92,310.19L401.11,305.98L401.31,306.12L401.41,308.45L401.51,311.81L401.81,305.62L402.21,310.82L402.31,308.18L402.41,310.86L402.92,310.1L403.02,301.35L403.62,294.98L403.72,311.49L403.82,307.69L403.91,306.58L404.01,305.75L404.21,309.36L404.31,308.55L404.41,310.53L404.92,304.05L405.02,309.15L405.22,305.79L405.62,311.38L405.72,309.77L405.82,307.7L406.02,306.51L406.22,310.23L406.32,308.99L406.42,310.93L406.52,304.63L407.22,307.67L407.32,308.8L407.52,310.61L407.72,306.68L407.82,311.42L408.22,304.88L408.32,310.73L408.42,311.34L408.52,305.5L409.12,306.62L409.22,309.69L409.32,299.94L409.62,310.46L409.92,306.27L410.02,308.62L410.32,307.95L410.42,310.7L410.62,310.32L410.72,308.05L411.52,311.73L411.62,305.08L412.02,311.33L412.42,308.54L412.52,308.92L412.72,310.87L412.92,306.37L413.12,308.29L413.22,311.51L413.42,306.58L414.02,309.28L414.12,307.91L414.52,306.76L414.92,311.73L415.02,310.95L415.12,309.38L415.42,311.43L415.72,309.87L415.82,302.65L416.42,311.43L416.62,309.15L416.72,307.29L417.62,310.86L417.72,309L417.92,307.45L418.02,310.66L418.12,295.85L418.52,311.61L418.92,311.1L419.02,307.8L419.32,311.8L419.42,308.3L419.62,306.32L419.72,307.64L419.82,310.12L420.02,301.33L420.33,308.35L420.43,311.13L420.63,308.95L420.73,297.95L421.32,311.2L421.52,306.9L421.62,309.34L421.82,310.98L422.12,306.82L422.33,307.4L422.43,310.56L422.63,304.64L422.73,311.85L423.03,310.39L423.13,310.35L423.43,310.5L423.53,306.53L423.82,308.88L423.92,297.86L424.73,310.75L424.83,310.36L425.23,304.43L425.33,312.09L425.53,305.77L426.13,309.01L426.23,310.07L426.63,311.8L427.13,303.64L427.23,311.49L427.63,310.17L427.73,308.22L428.23,304.56L428.53,311.33L428.63,308.99L429.03,306.81L429.33,311.31L429.43,309.25L429.63,309.5L429.73,308.02L429.83,311.26L430.43,312.31L430.73,308.3L430.83,308.62L430.93,308.4L431.03,310.22L431.13,310.74L431.23,309.29L431.33,309.76L431.43,305.68L431.53,310.8L432.23,310.64L432.33,312.22L432.53,306.75L433.03,311.05L433.13,311.02L433.33,309.26L433.43,312.32L433.83,311.88L433.93,310.81L434.33,309.47L434.53,311.34L434.63,311.2L434.73,309.3L435.13,310.9L435.23,301.82L435.33,311.42L436.23,304.4L436.33,310.24L436.53,307.4L436.83,311.19L436.93,307.75L437.03,312.16L437.13,307.71L437.63,311.01L437.73,306.14L437.83,300.99L438.23,311.47L438.43,308.16L438.53,308.56L438.63,299.66L438.73,311.24L439.23,310.61L439.33,308.68L439.43,306.59L439.84,311.48L440.04,307.83L440.14,310.64L440.24,305.3L440.83,305.81L440.93,310.52L441.33,312.26L441.53,308.94L441.74,309.25L441.84,311.14L441.94,304.75L442.54,308.22L442.64,309.79L442.74,311.4L443.23,307.97L443.44,310.9L443.54,309.99L444.04,312.22L444.34,290.33L444.44,309.37L444.64,309.57L444.74,306.93L444.84,310.56L444.94,310.78L445.04,308.62L445.14,304.99L445.24,311.9L445.64,309.59L445.74,312.14L446.44,306.91L446.54,310.25L446.64,309.75L446.84,309.98L446.94,309.53L447.04,311.39L447.24,311.77L447.34,304.39L447.74,311.02L447.84,311.06L448.24,309.06L448.34,310.71L448.44,310.63L448.94,309.06L449.04,311.01L449.14,310.09L449.24,311.74L449.54,307.35L449.84,309.06L449.94,309.94L450.04,308.82L450.24,311.47L450.34,232.14L450.74,311.99L451.14,311.16L451.24,312.77L451.94,308.57L452.04,310.46L452.14,309.44L452.24,308.88L452.34,311.14L452.84,309.1L452.94,310.67L453.04,310.23L453.14,305.56L453.24,312.42L453.94,310.3L454.04,310.07L454.24,305.07L454.34,310.99L454.64,311.9L454.84,308.93L455.14,309.72L455.24,309.18L455.44,311.04L455.54,305.29L455.74,308.67L455.84,310.94L456.04,307L456.14,311.54L456.44,307.69L456.54,312.77L457.24,302.9L457.34,310.5L457.54,306.49L457.74,311.36L457.94,309.28L458.04,311.28L458.14,311.14L458.24,311.66L458.34,308.78L458.64,307.22L459.25,312.42L459.35,311.51L459.65,311.67L459.85,308.56L460.14,309.97L460.24,311.21L460.44,312.05L460.54,305.66L460.95,308.04L461.05,309.97L461.25,311.76L461.35,307.7L461.65,313.14L462.05,306.77L462.15,310.49L462.25,307.32L462.35,310.58L462.45,306.67L462.75,309.47L462.85,298.72L463.35,312.22L463.65,308.97L463.75,309.73L464.05,311.29L464.35,309.01L464.45,308.8L464.65,307.21L465.05,311.86L465.15,310.51L465.25,307.68L466.05,312.18L466.15,307.49L466.75,311.87L466.85,300.19L466.95,311.78L467.65,310.71L467.75,311.64L467.85,307.22L468.45,308.63L468.55,310.97L468.65,311.44L469.05,309.97L469.15,310.47L469.25,310.04L469.35,311.71L469.85,310.46L469.95,309.17L470.65,311.81L470.75,310.94L470.85,311.02L471.05,311.92L471.15,306.59L471.65,311.17L471.95,309.73L472.05,310.05L472.35,311.98L472.45,308.48L472.55,312.03L472.65,305.76L473.25,309.47L473.35,312.07L473.65,310.53L474.05,312.44L474.15,313.28L474.95,295.99L475.05,310.05L475.15,311.71L475.25,307.05L475.65,311.44L475.75,306.39L476.35,312.63L476.55,311.13L476.66,312.28L477.05,306.18L477.45,307.11L477.55,311.41L477.95,311.48L478.35,308.93L478.46,310.4L478.76,310.77L478.86,309.47L478.96,310.79L479.06,303.75L479.16,302.72L479.26,307.4L479.36,292.5L480.15,312.38L480.25,311.25L480.46,311.8L480.56,310.75L480.66,308.23L481.46,312.85L481.56,311.52L481.66,311.77L481.76,300.74L482.36,311.34L482.46,309.04L483.06,312.35L483.16,309.07L483.26,310.11L483.66,307.6L483.76,311.7L484.06,311.26L484.16,308.57L484.26,308.27L484.36,312.01L484.76,312.31L484.86,309.5L485.06,311.59L485.16,312.07L485.56,310.5L485.76,310.58L485.86,294.67L486.06,311.41L486.66,311.12L486.76,311.09L486.96,311.66L487.26,305.04L487.56,309.41L487.66,309.51L488.26,308.77L488.46,313.04L488.56,311.65L488.66,306.34L489.06,312.13L489.26,311.44L489.36,310.83L489.76,312.67L489.86,310.18L489.96,311.63L490.06,308.97L490.16,306.1L490.36,312.78L490.66,309.84L490.76,310.55L490.86,306.97L490.96,311.48L491.46,309.85L491.56,310.28L491.76,309.33L491.86,311.34L491.96,309.34L492.16,312.3L492.46,308.69L492.56,312.23L492.66,307.45L492.76,312.92L493.46,311.72L493.56,306.17L494.46,312.64L494.56,311.78L494.66,312.34L494.86,310.91L495.06,311.22L495.16,308.39L495.26,311.57L495.66,306.92L495.97,310.3L496.07,309.21L496.27,312.63L496.37,308.49L496.56,307.92L496.66,311.77L497.06,310.31L497.16,302.9L497.66,312.25L497.97,311.72L498.07,307.02L498.17,307.45L498.27,312.05L498.67,305.26L498.77,312.62L498.97,309.96L499.07,312.06L499.66,313.06L499.97,308.48L500.07,311.05L500.27,312.04L500.37,303.85L500.77,311.58L500.87,312.45L500.97,308.34L501.57,311.31L501.67,311.17L501.87,311.3L501.97,310.11L502.17,309.83L502.27,312.34L502.57,311.59L502.67,307.43L502.77,306.95L502.87,311.59L502.97,312.48L503.07,308.69L503.17,311.22L503.27,307.4L503.97,312.7L504.17,312.19L504.27,311.37L504.37,310.52L504.67,312.58L504.77,312.24L504.87,290.76L505.17,311.26L505.67,310.89L505.77,310.34L506.17,306.34L506.47,311.77L506.57,310.14L506.67,312.27L507.07,309.23L507.27,309.76L507.37,307.3L507.47,312.83L508.07,306.58L508.17,311.03L508.27,311.02L508.37,311.18L508.47,309.18L508.57,308.9L508.67,310.68L508.87,309.81L508.97,311.47L509.17,311.38L509.27,312.13L509.37,304.92L510.07,311.83L510.17,307.89L510.27,310.17L510.57,311.12L510.67,307.9L510.77,310.71L510.87,312.2L511.57,308.56L511.67,310.09L511.77,310.08L511.97,309.57L512.07,310.6L512.17,311.21L512.37,313.28L512.47,308.35L512.77,311.27L512.87,310.38L513.27,308.59L513.67,312.4L513.77,310.55L513.87,311.78L513.97,309.95L514.07,310.94L514.17,303.93L514.57,312.06L514.97,311.8L515.07,308.23L515.58,312.18L515.98,312.06L516.08,307.67L516.77,312.59L516.87,309.98L516.97,308.39L517.38,305.05L517.68,312.58L517.78,309.33L517.98,313.14L518.28,305.11L518.38,311.87L518.48,306.43L518.68,312.07L519.18,306.8L519.28,311.1L519.48,312.41L519.68,311.22L519.78,310.43L519.88,309.54L520.18,312.38L520.28,311.29L520.38,311.96L520.68,311.4L520.78,312.13L520.88,309.33L521.08,308.08L521.28,311.89L521.58,309.34L521.68,310.04L522.08,309.53L522.48,312.65L522.58,312.33L523.28,308.14L523.38,310.07L523.48,311.77L523.78,308.98L524.18,310.78L524.28,311.78L524.38,307.37L524.48,312.24L524.98,309.41L525.08,312.73L525.68,305.81L525.78,312.21L525.98,309.85L526.48,310.55L526.58,311.24L526.78,310.43L526.98,312.46L527.08,311.74L527.18,304.55L527.48,313.03L527.88,311.28L527.98,307.26L528.08,311.71L528.78,310.78L528.88,311.38L528.98,312.93L529.08,309.46L529.48,311.36L529.58,310.31L529.88,307.17L529.98,312.03L530.08,306.52L530.38,312.03L530.98,311.32L531.08,309.81L531.18,309.99L531.28,312.17L531.58,310.39L531.68,311.97L531.78,308.6L532.48,312.33L532.58,310.85L532.68,310.08L532.78,310.97L533.08,310.42L533.18,305.42L533.58,312.11L533.98,310.86L534.08,309.17L534.38,313.5L534.68,309.09L534.89,312.08L534.99,311.45L535.49,312.7L535.59,307.92L535.69,309.62L535.78,287.57L536.48,312.15L536.58,310.5L536.69,311.65L536.89,312.53L537.19,308.43L537.49,310.43L537.59,311.13L537.79,310.7L537.89,311.26L537.99,309.59L538.09,312.67L538.59,309.25L538.69,311.21L538.79,309.94L538.89,312.13L539.19,307.5L539.59,311.02L539.69,312.06L539.99,309.37L540.39,311.76L540.49,311.21L540.79,312.34L541.09,311.51L541.19,309.81L541.29,312.51L541.99,311.62L542.09,311.81L542.69,311.04L542.79,312.54L543.19,309.21L543.49,310.51L543.59,312.53L544.29,306.99L544.39,311.94L544.49,312.55L544.69,309.78L544.99,311.43L545.09,306.12L545.69,312.07L545.89,311.09L545.99,309.14L546.29,312.29L546.59,307.1L546.69,311.71L546.79,308.13L547.09,312.54L547.59,310.86L547.69,310.47L547.79,312.61L548.39,312.58L548.49,309.72L548.59,313.11L549.09,308.31L549.29,312.25L549.39,310.44L549.59,312.96L550.09,305.62L550.19,312.38L550.39,308.03L550.79,312.61L550.89,311.36L551.29,304.59L551.49,311.56L551.59,313.22L551.89,313.37L552.3,310.65L552.4,312.16L552.69,312.66L552.99,309.75L553.09,310.28L553.19,312.11L553.39,308.75L553.49,312.82L553.89,311.49L553.99,312.47L554.2,313.18L554.4,307.8L554.8,310.44L554.9,310.47L555.39,306.77L555.49,312.62L555.59,309.32L556.2,312.93L556.3,308.42L556.4,313.43L556.6,304.86L557.1,312.89L557.2,311.8L557.7,309.66L557.8,312.68L557.9,311.72L558,310.87L558.2,312.45L558.4,309.5L558.5,311.42L558.6,312.17L559,312.93L559.1,308.37L559.3,312.39L559.4,311.71L559.5,311.42L559.6,312.85L559.7,311.64L559.8,309.81L559.9,312.53L560.1,309.44L560.5,309.58L560.6,308.72L560.9,311.27L561,303.7"/></g><g class="points"/><g class="text"/></g></g></g><g class="overplot"/><path class="xlines-above crisp" style="fill: none;" d="M0,0"/><path class="ylines-above crisp" style="fill: none;" d="M0,0"/><g class="overlines-above"/><g class="xaxislayer-above"><g class="xtick"><text text-anchor="middle" x="0" y="403" style="font-family: TOBESTRIPPEDOpen SansTOBESTRIPPED, verdana, arial, sans-serif; font-size: 12px; fill: rgb(68, 68, 68); fill-opacity: 1; white-space: pre;" transform="translate(197.37,0)">50</text></g><g class="xtick"><text text-anchor="middle" x="0" y="403" style="font-family: TOBESTRIPPEDOpen SansTOBESTRIPPED, verdana, arial, sans-serif; font-size: 12px; fill: rgb(68, 68, 68); fill-opacity: 1; white-space: pre;" transform="translate(337.64,0)">100</text></g><g class="xtick"><text text-anchor="middle" x="0" y="403" style="font-family: TOBESTRIPPEDOpen SansTOBESTRIPPED, verdana, arial, sans-serif; font-size: 12px; fill: rgb(68, 68, 68); fill-opacity: 1; white-space: pre;" transform="translate(477.92,0)">150</text></g><g class="xtick"><text text-anchor="middle" x="0" y="403" style="font-family: TOBESTRIPPEDOpen SansTOBESTRIPPED, verdana, arial, sans-serif; font-size: 12px; fill: rgb(68, 68, 68); fill-opacity: 1; white-space: pre;" transform="translate(618.19,0)">200</text></g></g><g class="yaxislayer-above"><g class="ytick"><text text-anchor="end" x="59" y="4.199999999999999" style="font-family: TOBESTRIPPEDOpen SansTOBESTRIPPED, verdana, arial, sans-serif; font-size: 12px; fill: rgb(68, 68, 68); fill-opacity: 1; white-space: pre;" transform="translate(0,383.77)">0.3</text></g><g class="ytick"><text text-anchor="end" x="59" y="4.199999999999999" style="font-family: TOBESTRIPPEDOpen SansTOBESTRIPPED, verdana, arial, sans-serif; font-size: 12px; fill: rgb(68, 68, 68); fill-opacity: 1; white-space: pre;" transform="translate(0,328.23)">0.4</text></g><g class="ytick"><text text-anchor="end" x="59" y="4.199999999999999" style="font-family: TOBESTRIPPEDOpen SansTOBESTRIPPED, verdana, arial, sans-serif; font-size: 12px; fill: rgb(68, 68, 68); fill-opacity: 1; white-space: pre;" transform="translate(0,272.68)">0.5</text></g><g class="ytick"><text text-anchor="end" x="59" y="4.199999999999999" style="font-family: TOBESTRIPPEDOpen SansTOBESTRIPPED, verdana, arial, sans-serif; font-size: 12px; fill: rgb(68, 68, 68); fill-opacity: 1; white-space: pre;" transform="translate(0,217.14)">0.6</text></g><g class="ytick"><text text-anchor="end" x="59" y="4.199999999999999" style="font-family: TOBESTRIPPEDOpen SansTOBESTRIPPED, verdana, arial, sans-serif; font-size: 12px; fill: rgb(68, 68, 68); fill-opacity: 1; white-space: pre;" transform="translate(0,161.59)">0.7</text></g><g class="ytick"><text text-anchor="end" x="59" y="4.199999999999999" style="font-family: TOBESTRIPPEDOpen SansTOBESTRIPPED, verdana, arial, sans-serif; font-size: 12px; fill: rgb(68, 68, 68); fill-opacity: 1; white-space: pre;" transform="translate(0,106.05)">0.8</text></g></g><g class="overaxes-above"/></g></g><g class="polarlayer"/><g class="ternarylayer"/><g class="geolayer"/><g class="pielayer"/><g class="glimages"/><defs id="topdefs-8c3e02"><g class="clips"/><clipPath id="legend8c3e02"><rect width="56" height="29" x="0" y="0"/></clipPath></defs><g class="layer-above"><g class="imagelayer"/><g class="shapelayer"/></g><g class="infolayer"><g class="legend" pointer-events="all" transform="translate(632.22, 60)"><rect class="bg" shape-rendering="crispEdges" style="stroke: rgb(68, 68, 68); stroke-opacity: 1; fill: rgb(255, 255, 255); fill-opacity: 1; stroke-width: 0px;" width="56" height="29" x="0" y="0"/><g class="scrollbox" transform="translate(0, 0)" clip-path="url(#legend8c3e02)"><g class="groups"><g class="traces" style="opacity: 1;" transform="translate(0, 14.5)"><g class="layers" style="opacity: 1;"><g class="legendfill"/><g class="legendlines"><path class="js-line" d="M5,0h30" style="fill: none; stroke: rgb(31, 119, 180); stroke-opacity: 1; stroke-width: 2px;"/></g><g class="legendsymbols"><g class="legendpoints"/></g></g><text class="legendtext user-select-none" text-anchor="start" style="font-family: TOBESTRIPPEDOpen SansTOBESTRIPPED, verdana, arial, sans-serif; font-size: 12px; fill: rgb(68, 68, 68); fill-opacity: 1; white-space: pre;" x="40" y="4.680000000000001">G</text><rect class="legendtoggle" style="cursor: pointer; fill: rgb(0, 0, 0); fill-opacity: 0;" pointer-events="all" x="0" y="-9.5" width="96" height="19"/></g></g></g><rect class="scrollbar" rx="20" ry="3" width="0" height="0" style="fill: rgb(128, 139, 164); fill-opacity: 1;" x="0" y="0"/></g><g class="g-gtitle"><text class="gtitle" style="font-family: TOBESTRIPPEDOpen SansTOBESTRIPPED, verdana, arial, sans-serif; font-size: 17px; fill: rgb(68, 68, 68); opacity: 1; font-weight: normal; white-space: pre;" x="350" y="30" text-anchor="middle">seg_bce loss over time</text></g><g class="g-xtitle"><text class="xtitle" style="font-family: TOBESTRIPPEDOpen SansTOBESTRIPPED, verdana, arial, sans-serif; font-size: 14px; fill: rgb(68, 68, 68); opacity: 1; font-weight: normal; white-space: pre;" x="340.5" y="442" text-anchor="middle">epoch</text></g><g class="g-ytitle"><text class="ytitle" transform="rotate(-90,22,225)" style="font-family: TOBESTRIPPEDOpen SansTOBESTRIPPED, verdana, arial, sans-serif; font-size: 14px; fill: rgb(68, 68, 68); opacity: 1; font-weight: normal; white-space: pre;" x="22" y="225" text-anchor="middle">loss</text></g></g></svg>