<svg class="main-svg" xmlns="http://www.w3.org/2000/svg" xmlns:xlink="http://www.w3.org/1999/xlink" width="700" height="450" style="" viewBox="0 0 700 450"><rect x="0" y="0" width="700" height="450" style="fill: rgb(255, 255, 255); fill-opacity: 1;"/><defs id="defs-ee92ef"><g class="clips"><clipPath id="clipee92efxyplot" class="plotclip"><rect width="561" height="330"/></clipPath><clipPath class="axesclip" id="clipee92efx"><rect x="60" y="0" width="561" height="450"/></clipPath><clipPath class="axesclip" id="clipee92efy"><rect x="0" y="60" width="700" height="330"/></clipPath><clipPath class="axesclip" id="clipee92efxy"><rect x="60" y="60" width="561" height="330"/></clipPath></g><g class="gradients"/></defs><g class="bglayer"><rect class="bg" x="60" y="60" width="561" height="330" style="fill: rgb(255, 255, 255); fill-opacity: 1; stroke-width: 0;"/></g><g class="layer-below"><g class="imagelayer"/><g class="shapelayer"/></g><g class="cartesianlayer"><g class="subplot xy"><g class="layer-subplot"><g class="shapelayer"/><g class="imagelayer"/></g><g class="gridlayer"><g class="x"><path class="xgrid crisp" d="M0,60v330" transform="translate(197.37,0)" style="stroke: rgb(238, 238, 238); stroke-opacity: 1; stroke-width: 1px;"/><path class="xgrid crisp" d="M0,60v330" transform="translate(337.64,0)" style="stroke: rgb(238, 238, 238); stroke-opacity: 1; stroke-width: 1px;"/><path class="xgrid crisp" d="M0,60v330" transform="translate(477.92,0)" style="stroke: rgb(238, 238, 238); stroke-opacity: 1; stroke-width: 1px;"/><path class="xgrid crisp" d="M0,60v330" transform="translate(618.19,0)" style="stroke: rgb(238, 238, 238); stroke-opacity: 1; stroke-width: 1px;"/></g><g class="y"><path class="ygrid crisp" d="M60,0h561" transform="translate(0,321.85)" style="stroke: rgb(238, 238, 238); stroke-opacity: 1; stroke-width: 1px;"/><path class="ygrid crisp" d="M60,0h561" transform="translate(0,270.19)" style="stroke: rgb(238, 238, 238); stroke-opacity: 1; stroke-width: 1px;"/><path class="ygrid crisp" d="M60,0h561" transform="translate(0,218.54)" style="stroke: rgb(238, 238, 238); stroke-opacity: 1; stroke-width: 1px;"/><path class="ygrid crisp" d="M60,0h561" transform="translate(0,166.89)" style="stroke: rgb(238, 238, 238); stroke-opacity: 1; stroke-width: 1px;"/><path class="ygrid crisp" d="M60,0h561" transform="translate(0,115.22999999999999)" style="stroke: rgb(238, 238, 238); stroke-opacity: 1; stroke-width: 1px;"/><path class="ygrid crisp" d="M60,0h561" transform="translate(0,63.58)" style="stroke: rgb(238, 238, 238); stroke-opacity: 1; stroke-width: 1px;"/></g></g><g class="zerolinelayer"><path class="yzl zl crisp" d="M60,0h561" transform="translate(0,373.5)" style="stroke: rgb(68, 68, 68); stroke-opacity: 1; stroke-width: 1px;"/></g><path class="xlines-below"/><path class="ylines-below"/><g class="overlines-below"/><g class="xaxislayer-below"/><g class="yaxislayer-below"/><g class="overaxes-below"/><g class="plot" transform="translate(60, 60)" clip-path="url(#clipee92efxyplot)"><g class="scatterlayer mlayer"><g class="trace scatter trace426abd" style="stroke-miterlimit: 2; opacity: 1;"><g class="fills"/><g class="errorbars"/><g class="lines"><path class="js-line" style="vector-effect: non-scaling-stroke; fill: none; stroke: rgb(31, 119, 180); stroke-opacity: 1; stroke-width: 2px; opacity: 1;" d="M0,301.48L0.3,298.91L0.6,309.09L0.7,303.67L0.8,301.96L0.9,300.56L1.1,303.01L1.2,310.92L1.7,297.19L1.9,307.43L2,307.28L2.2,306.71L2.4,308.15L2.5,302.64L2.9,309.15L3.2,301.3L3.3,306.94L3.4,308.25L4.3,290.95L4.4,304.05L4.6,307.36L4.8,306.13L4.9,300.19L5.11,296.04L5.21,309.95L5.6,298.76L5.7,297.17L6.3,309.4L6.4,305.06L6.5,299.6L7.21,309.9L7.31,288.45L7.51,309.91L8.01,309.73L8.11,297.81L8.81,310.07L8.91,300.73L9.21,309.06L9.71,307.43L9.81,309.71L10.21,299.22L10.61,303.51L10.71,303.97L10.81,300.71L10.91,308.93L11.31,302.34L11.41,308.32L11.61,299.13L12.21,302.51L12.31,307.3L12.51,309.19L12.81,301.84L12.91,308.14L13.01,308.32L13.11,311.18L13.41,299.25L13.51,310.24L13.61,300.59L13.71,310L14.41,308L14.51,304.93L14.71,308.36L15.11,295.77L15.21,306.55L15.31,305.19L15.41,306.47L15.51,303.83L15.61,293.17L16.11,310.3L16.61,309.39L16.71,302.65L16.81,310.65L17.41,308.62L17.51,304.82L17.71,304.6L18.11,309.53L18.21,305.6L18.31,305.49L18.41,304.87L18.51,292.07L19.11,310.16L19.41,306.33L19.51,299.39L19.91,307.27L20.31,305.06L20.41,304.11L20.91,299.14L21.11,309.07L21.21,308.11L21.31,297.01L21.51,311.35L22.11,307.98L22.21,308.64L22.41,310.44L22.51,301.42L22.61,301.24L22.91,309.88L23.01,301.12L23.31,308.38L23.41,298.88L23.51,308.84L24.01,298.1L24.21,305.24L24.31,304.95L24.42,304.3L24.52,309.67L24.62,302.01L24.82,310.12L25.21,304.03L25.31,310.34L25.51,294.25L26.01,302L26.11,308.28L26.32,309.32L26.52,297.15L27.02,302.48L27.12,301.46L27.52,298.96L27.62,310.29L27.92,310.26L28.01,306.69L28.42,304.2L28.82,310.86L28.92,307.97L29.02,309.82L29.12,304.16L29.32,307.82L29.42,303.05L29.62,310.26L29.72,293.82L30.22,308.03L30.32,307.68L30.52,300.57L30.72,309.24L31.12,305.49L31.22,306.4L31.32,213.23L31.72,306.72L31.92,305.24L32.02,303.63L32.82,311.02L32.92,307.21L33.12,302.83L33.22,306.88L33.42,309.11L33.62,304.12L33.72,309.69L33.82,298.24L34.42,307.79L34.52,310.09L34.62,296.96L34.72,311.36L35.22,309.65L35.32,308.72L36.02,304.06L36.12,304.8L36.22,306.91L36.42,309.4L36.62,308.16L36.72,301.18L37.52,310.03L37.62,309.6L37.72,308.92L37.82,302.88L38.32,308.4L38.42,302.99L38.62,310.5L39.12,300.05L39.22,306.17L39.32,305.65L39.52,308.36L39.72,306L39.82,310.16L40.22,303.82L40.42,307.98L40.52,310.92L41.02,304.06L41.32,305.2L41.42,305.9L41.62,307.89L41.72,305.14L42.12,302.57L42.42,309.81L42.52,305.27L43.12,310.51L43.32,309.67L43.42,308.99L44.03,300.58L44.13,309.64L44.23,307.18L44.33,307.55L44.53,307.16L44.63,309.94L44.73,307.5L44.82,304.98L45.32,303.52L45.62,310.41L45.73,306.34L45.83,307.43L45.93,305.94L46.03,296.69L46.23,310.3L46.83,304.44L46.93,304.92L47.33,310.7L47.43,285.04L47.93,310.7L48.23,301.81L48.33,309.37L48.63,310.68L49.13,304.38L49.23,307.58L49.33,308.86L49.63,309.1L49.73,305.64L49.83,310.67L50.63,304.49L50.73,310.86L50.83,306.6L51.43,310.11L51.53,309.41L51.63,309.29L51.73,306.77L52.23,311.07L52.33,296.48L53.13,311.14L53.23,310.01L53.43,305.21L53.83,311.04L54.03,307.96L54.13,310.55L54.53,310.6L54.93,305.25L55.03,310.35L55.23,306.26L55.73,308.86L55.83,309.17L56.03,306.46L56.33,310.55L56.53,309.61L56.63,308.77L56.73,309.18L56.83,306.94L56.93,305.77L57.43,311.08L57.83,309.87L57.93,308.47L58.03,304.88L58.43,311.34L58.63,310.02L58.73,310.25L58.93,307.29L59.33,310.81L59.53,308.79L59.63,309.36L59.73,307.22L60.03,310.41L60.33,308.32L60.43,308.45L60.53,306.33L60.83,311.45L61.13,308.93L61.23,309.12L61.54,310.34L61.63,307.55L61.73,310.18L61.83,198L62.13,310.68L62.63,305.68L62.73,309.84L62.83,310.15L62.93,308.84L63.03,309.8L63.13,308.49L63.74,310.73L63.84,308.55L64.04,308.27L64.73,311.32L64.83,310.61L65.03,311.09L65.64,307.82L65.74,308.56L65.84,308.96L66.14,311.54L66.24,308.7L66.54,310.09L66.64,307.58L66.74,311.62L67.34,306.08L67.44,307.72L67.84,310.87L68.14,309.01L68.24,308.31L68.74,311.37L68.84,307.27L69.04,309.32L69.14,310.5L69.64,311.19L69.84,307.69L69.94,310.88L70.64,311.26L70.74,309.49L70.84,309.45L71.34,310.77L71.44,309.78L71.54,309.03L72.34,311.1L72.44,309.69L72.84,308.34L72.94,310.71L73.14,310.18L73.24,310.88L73.44,308.31L73.54,311.28L73.94,309.57L74.04,310.41L74.64,310.06L74.74,311.57L74.84,309.72L75.04,308.74L75.14,310.94L75.34,309.42L75.44,308.27L75.54,311.01L76.24,310.35L76.34,308.79L76.74,310.8L76.84,308.37L77.24,310.52L77.34,309.37L77.44,311.45L77.54,308.76L78.04,310.39L78.14,309.76L78.24,308.78L78.64,310.62L78.74,309.21L78.84,310.6L79.24,309.87L79.34,311.14L79.44,309.14L79.54,304.02L79.74,311.42L80.14,309.36L80.24,309.76L80.54,311.31L80.75,308.03L80.85,309.76L80.95,259.04L81.84,311.72L81.94,310.65L82.04,310.87L82.44,311.51L82.54,309.06L82.85,309.41L82.95,309.25L83.45,311.92L83.65,309.76L83.75,309.18L84.05,307.99L84.34,311.84L84.55,310.57L84.65,310.74L84.85,309.52L85.35,311.6L85.45,309.52L85.65,306.84L86.15,311.39L86.25,308.33L86.35,311.04L87.05,310.19L87.15,310.99L87.45,309.95L87.55,307.85L87.75,311.73L88.25,311.66L88.35,309.07L88.55,307.77L88.65,310.44L88.75,311.41L88.95,309.15L89.05,310.3L89.15,307.44L89.45,312.06L89.95,311.33L90.05,311.37L90.15,310.68L90.25,311.88L90.75,310.98L90.85,311.46L91.05,309.08L91.65,309.21L91.75,310.66L92.45,311.57L92.55,311L92.75,311.55L92.85,307.85L93.15,309.38L93.25,310.36L93.35,310.23L93.45,310.95L93.55,310.68L93.65,311.21L93.95,311.95L94.05,309.78L94.15,309.52L94.25,311.14L94.35,312.21L94.85,307.04L95.05,309.76L95.15,311.1L95.45,312.06L95.65,309.95L95.85,311.35L95.95,311.9L96.65,308.74L96.75,310.4L96.85,310.84L97.15,312.06L97.25,310.23L97.35,309.25L97.95,311.51L98.25,311.18L98.35,311.17L98.95,309.52L99.05,310.35L99.15,311.35L99.35,310.47L99.55,310.87L99.65,307.02L99.85,312.03L100.46,310.93L100.56,310.78L100.76,312.1L100.95,310.04L101.05,307.99L101.55,311.67L101.85,311.17L101.96,311.35L102.26,311.61L102.96,310.3L103.06,310.52L103.36,309.66L103.66,311.63L103.86,311.28L103.96,310.95L104.26,310.49L104.36,310.97L104.46,311.49L104.56,257.83L105.06,311.99L105.16,310.89L105.26,311.59L105.36,310.42L105.46,311.95L105.96,310.95L106.06,311.57L106.26,310.12L106.56,312.02L106.86,310.48L106.96,310.48L107.86,311.71L107.96,311.36L108.36,309.76L108.46,311.89L108.66,311.12L108.76,311.2L108.96,310.19L109.16,311.96L109.26,310.99L109.36,307.55L109.76,312.1L110.16,311.13L110.26,311.33L110.36,310.27L110.46,311.94L110.86,311.75L110.96,312.05L111.06,310.1L111.16,312.16L111.66,310.94L111.76,311.13L111.86,309.33L112.46,311.48L112.56,312.23L112.96,309.56L113.36,309.97L113.46,295.65L114.06,311.49L114.36,310.99L114.46,310.39L115.26,312.15L115.36,311.69L115.56,310.93L115.96,311.63L116.06,310.53L116.86,311.77L116.96,309.49L117.06,312.46L117.76,311.68L117.86,312.12L117.96,311.93L118.06,312.19L118.16,309.7L118.86,311.76L118.96,311.31L119.06,310.81L119.36,311.76L119.87,311.02L119.97,309.87L120.07,311.81L120.66,309.21L120.76,311.18L120.86,310.57L121.06,309.46L121.47,312.07L121.57,311.64L121.67,310.83L121.77,309.52L122.27,311.56L122.37,310.67L122.47,310.63L123.07,311.93L123.17,311.21L123.27,311.31L123.47,311.01L123.57,285.28L124.37,312.41L124.47,310.24L124.97,311.96L125.07,310.97L125.17,310.27L125.47,311.86L125.97,311.04L126.07,311.11L126.37,311.79L126.57,310.66L126.67,311.37L126.77,311.8L126.97,311.91L127.47,311.03L127.57,311.76L127.77,312.05L128.07,311.82L128.17,310.41L128.77,312.46L128.97,311.8L129.07,311.33L129.17,311.21L129.27,311.6L129.37,307.85L129.57,312.26L129.87,311.51L129.97,262.42L130.07,250.15L130.37,293.7L130.47,295.52L131.57,311.99L131.67,311.05L132.07,310.03L132.27,311.96L132.47,311.19L132.57,311.16L132.87,311.76L133.07,310.38L133.37,311.36L133.47,310.06L133.57,312L133.87,309.09L134.27,311.23L134.37,311.09L134.47,312.05L134.77,310.57L135.07,311.92L135.17,311.44L135.37,308.66L135.87,311.28L135.97,311.4L136.17,310.78L136.27,312.4L136.67,311.07L136.77,311.87L137.08,312.14L137.18,311.24L137.28,310.24L137.57,311.83L137.87,311.77L137.97,308.47L138.57,312.16L138.77,311.58L138.88,311.72L139.28,310.14L139.58,312.07L139.68,311.76L139.78,310.77L139.98,311.84L140.47,311.07L140.57,310.84L141.18,311.87L141.38,311.36L141.48,311.33L141.58,312.02L141.78,310.01L142.18,311.14L142.28,310.76L142.48,309.35L142.58,311.58L142.68,311.9L142.88,310.92L142.98,311.7L143.08,309.81L143.48,312.06L143.78,310.27L143.88,301.45L144.68,311.88L144.78,311.24L145.08,311.18L145.58,312.26L145.68,311.5L145.98,311.11L146.38,312.12L146.58,311.79L146.68,311.49L146.78,311.95L146.98,311.17L147.18,311.46L147.28,310.35L147.78,312.11L147.88,309.53L148.08,311.6L148.18,312.19L148.28,312.38L148.38,311.36L148.58,311.34L148.68,311.32L149.08,312.51L149.48,312.03L149.58,309.62L149.88,312.45L150.48,311.85L150.58,311.32L150.78,312.16L150.98,310.36L151.18,312L151.28,310.22L151.78,312.22L152.18,311.68L152.28,311.02L152.38,310.49L152.68,312.04L152.88,311.14L152.98,311.63L153.28,310.89L153.48,311.14L153.58,309.01L154.28,312.12L154.38,311.16L154.48,312L154.98,309.95L155.28,310.83L155.38,311.91L155.58,312.34L155.68,310.1L155.98,312.2L156.39,311.43L156.49,299.87L156.59,311.76L157.28,311.29L157.38,311.57L157.58,311.68L157.68,310.47L157.98,308.58L158.39,312.07L158.49,311.5L158.59,311.69L158.99,312.01L159.39,311.19L159.49,311.68L159.59,311.17L159.98,312.05L160.19,311.49L160.29,311.55L160.99,312.54L161.09,311.79L161.19,312.37L161.49,311.25L161.79,311.8L161.89,311.68L161.99,311.81L162.09,311.36L162.19,307.47L162.89,312.18L162.99,312.07L163.09,311.43L163.19,312.08L163.29,311.12L163.39,311.26L163.49,301.9L163.89,312.35L164.29,310.45L164.39,311.53L165.29,312L165.39,311.14L165.59,310.75L165.69,312.02L165.79,312.46L166.19,310.05L166.49,311.61L166.59,312.11L166.89,312.27L167.29,311.41L167.39,311.92L167.89,312.47L167.99,311.46L168.09,308.12L168.59,312.01L168.89,311.88L168.99,311.66L169.19,311.39L169.59,312.03L169.69,311.32L169.89,312.26L169.99,311.23L170.49,311.85L170.59,311.04L170.79,311.02L170.89,312.02L170.99,311.46L171.09,288.47L171.79,311.25L171.89,311.03L171.99,311.63L172.09,309.95L172.69,312.05L172.79,311.71L173.49,311.12L173.59,312.21L173.89,311.54L174.09,311.81L174.19,306.9L174.29,312.27L174.99,312.06L175.09,311.9L175.49,311.57L175.59,312.43L175.69,312.15L175.8,312.18L176.1,310.16L176.6,311.65L176.69,312.36L177.39,311.64L177.49,312.18L177.59,312.35L177.8,311.36L177.9,312.1L178,311.55L178.2,311.18L178.5,312.24L178.7,311.75L178.8,296.2L179.6,312.38L179.7,311.32L180.5,312.41L180.6,309.64L180.9,312.51L181.4,312.05L181.5,311.77L181.6,311.25L181.8,312.63L182.2,311.95L182.3,312.29L182.4,310.31L182.8,312.49L183,312.17L183.1,311.96L183.5,311.61L183.6,312.34L183.8,311.89L183.9,311.41L184.2,312.83L184.5,311.9L184.6,310.67L185.2,312.52L185.4,312.38L185.5,311.79L185.7,311.37L186,312.32L186.3,311.94L186.4,311.79L186.5,311.3L186.6,312.09L186.7,311.77L186.8,270.93L187.1,312.03L187.6,311.41L187.7,311.4L187.8,312.29L188.5,312.04L188.6,311.56L188.8,312.09L188.9,311.95L189,310.57L189.2,312.2L189.6,309.78L189.8,311.81L189.9,312.24L190.7,311.96L190.8,310.89L191.3,312.27L191.6,311.36L191.7,311.92L191.8,312.35L192,311.73L192.1,307.06L192.9,312.14L193,312.1L193.2,308.79L193.31,312.29L193.7,311.76L193.8,312.04L194,312.45L194.3,311.42L194.5,311.9L194.6,311.97L194.7,310.12L194.8,312.64L195.31,310.7L195.41,311.97L195.61,308.77L195.81,312.48L196.11,311.96L196.21,311.26L196.4,311.11L196.7,312.47L196.9,311.76L197,310.56L197.11,310.08L197.31,311.44L197.41,311.43L197.51,311.91L197.61,311.18L197.91,312.12L198.11,311.94L198.21,312.44L198.51,311.02L198.71,311.54L198.81,312.22L198.91,310.82L199.11,312.45L199.51,312.46L199.61,312.11L199.81,312.33L200.11,311.41L200.31,311.73L200.41,312.41L200.51,308.53L201.11,312.2L201.21,312.22L201.31,310.85L201.41,312.38L201.91,311.93L202.01,312.08L202.21,312.47L202.81,311.88L202.91,312.44L203.01,311.11L203.11,312.6L203.61,312.27L203.71,312.03L203.91,312.68L204.11,311.57L204.41,312.31L204.51,312.08L204.81,311.85L205.11,312.6L205.31,312.43L205.41,312.2L205.51,310.7L205.71,312.46L206.21,310.81L206.31,311.91L206.41,311.07L206.61,312.61L207.01,311.86L207.11,312.34L207.81,309.39L207.91,310.61L208.01,312.21L208.31,312.58L208.71,311.71L208.81,311.9L208.91,312.2L209.11,312.43L209.61,311.91L209.71,312.41L209.81,311.09L210.31,312.73L210.41,312.36L210.51,312.4L210.71,309.87L210.81,298.92L211.41,312.24L211.61,312.04L211.71,312.15L211.91,312.28L212.11,311.16L212.41,312.12L212.51,312.09L214.62,311.97L214.72,312.58L215.72,310.12L215.82,311.89L215.92,310.98L216.11,312.57L216.52,312.2L216.62,312.47L217.42,312.05L217.52,312.22L217.62,312.28L217.92,311.76L218.22,312.65L218.32,312.57L218.42,312.16L218.62,312.4L219.32,312.15L219.42,312.22L219.62,312.01L220.02,312.48L220.12,312.2L220.22,312.2L220.32,312.65L220.82,311.82L220.92,312.1L221.02,312.13L221.32,311.82L221.92,312.34L222.02,312.2L222.12,311.9L222.22,311.56L222.42,312.5L222.52,305.19L222.72,312.56L223.32,311.79L223.42,311.65L223.62,311.26L224.12,312.44L224.22,312.36L224.32,311.29L224.42,310.8L224.52,312.04L224.92,312.08L225.02,312.58L225.22,311.1L225.72,311.64L225.82,130.73L226.62,312.38L226.72,310.49L226.82,312.44L227.42,312.31L227.52,311.28L227.72,312.4L228.32,312.19L228.42,312.28L229.12,312.45L229.22,311.56L229.32,311.8L229.62,312.24L229.72,311.96L229.82,307.86L230.52,312.49L230.62,312.03L230.72,311.14L230.82,312.17L231.52,311.81L231.62,312.08L232.02,312.56L232.13,310.51L232.23,312.26L232.33,312.43L232.92,311.88L233.02,309.08L233.72,312.47L233.82,311.86L233.93,312.31L234.53,311.77L234.63,312.65L235.23,311.66L235.53,311.97L235.62,312L236.33,311.62L236.43,310.36L236.73,312.12L237.13,310.1L237.23,311.71L237.33,312.07L237.53,311.52L237.73,312.65L238.13,311.84L238.23,312.03L238.43,312.25L238.63,311.87L238.73,286.97L239.23,312.43L239.53,311.06L239.63,311.82L239.83,311.74L239.93,312.42L240.43,312.22L240.53,311.78L240.73,311.56L241.03,312.52L241.13,312.15L241.23,311.46L241.33,312.5L241.63,311.2L241.93,312.18L242.03,311.86L242.23,312.6L242.73,312.13L242.83,308.7L243.53,312.29L243.63,311.72L243.73,311.94L244.03,311.41L244.23,312.74L244.53,312.16L244.63,311.84L245.13,311.6L245.23,312.61L245.33,311.2L245.43,312.21L246.13,311.92L246.23,312.14L247.13,311.7L247.23,312.75L247.43,311.74L248.03,311.91L248.13,312.18L248.53,311.77L248.83,312.3L248.93,311.86L249.63,312.48L249.73,311.59L250.13,310.08L250.23,312.31L250.43,311.87L250.53,311.83L250.93,311.58L251.44,312.4L251.54,311.98L252.24,312.47L252.34,311.86L252.63,312.48L252.93,311.58L253.03,312.18L253.64,312.03L253.74,312.26L253.84,16.5L254.64,312.19L254.74,312.46L255.04,311.46L255.44,312.59L255.54,312.46L255.84,311.85L255.94,312.68L256.04,311.92L256.64,312.03L256.74,312.39L257.54,312.1L257.64,309.1L257.94,312.5L258.44,311.97L258.54,309.14L258.74,312.55L259.34,312.15L259.44,312.14L259.94,312.47L260.04,311.96L260.14,312.32L260.24,312.07L260.34,312.72L260.44,311.58L260.74,312.11L260.84,310.85L261.44,312.52L261.64,312.25L261.74,312.49L262.54,311.55L262.84,311.81L262.94,311.87L264.14,312.44L264.24,311.88L264.84,312.39L265.04,311.72L265.14,311.81L265.54,311.34L265.94,312.21L266.04,311.45L266.44,311.25L266.74,312.17L266.84,312.04L266.94,311.82L267.74,312.43L267.84,312.22L267.94,312.53L268.64,309.62L268.74,310.65L268.84,311.42L269.84,312.31L269.94,312.28L270.04,311.31L270.24,312.47L270.64,311.9L270.74,312.21L271.45,312.6L271.55,311.9L271.85,311.69L272.44,312.44L272.54,312.42L272.75,310.96L273.05,312.63L273.25,312.19L273.35,312.33L274.05,311.76L274.15,312.07L274.25,312.56L275.15,311.68L275.25,312.59L276.15,311.67L276.25,312.63L276.65,310.48L276.95,312.43L277.05,312.56L277.45,311.79L277.85,312.1L277.95,312.66L278.65,310.31L278.75,312.13L278.85,312.26L279.15,311.79L279.45,312.57L279.55,312.29L279.65,311.96L280.45,312.56L280.55,312.45L280.85,312.57L281.15,311.93L281.25,312.64L281.35,312.46L281.85,311.36L281.95,312.66L282.05,312.23L282.15,312.53L282.55,311.34L282.95,311.88L283.05,312.5L283.45,312.62L283.55,310.98L283.85,312.07L283.95,312.15L284.35,312.68L284.55,311.81L284.65,311.64L284.75,311.45L284.85,312.35L284.95,312.32L285.05,312.53L285.55,312.27L285.65,309.72L286.45,312.31L286.55,311.88L287.05,312.64L287.25,312.5L287.35,311.76L287.55,312.5L287.65,189.22L288.25,312.69L288.46,311.85L288.56,312.12L288.76,311.92L288.86,310.4L289.15,312.67L289.75,312.26L289.85,312.33L290.15,312.73L290.26,311.79L290.56,312.09L290.66,312.15L290.96,312.67L291.36,312.44L291.46,311.69L292.56,312.32L292.66,312.06L293.46,312.75L293.56,312.27L294.26,312.63L294.36,311.7L294.86,312.41L294.96,312.25L295.06,310.64L295.56,309.82L295.66,312.68L295.86,312.43L295.96,311.63L296.66,312.43L296.76,312.23L296.86,311.85L297.46,312.67L297.56,311.48L298.06,311.3L298.36,312.35L298.46,312.31L298.66,312.71L299.16,311.93L299.26,312.24L299.56,312.76L299.96,311.81L300.06,312.37L300.76,311.78L300.86,312.36L300.96,312.78L301.46,308.65L301.66,312.24L301.76,312.52L301.96,312.72L302.66,311.86L302.76,311.99L303.16,312.73L303.26,311.7L303.36,312.51L303.46,311.39L304.26,312.42L304.36,311.9L304.46,311.74L304.66,312.42L304.96,312.19L305.06,312.6L305.46,311.47L305.86,311.58L305.96,312.47L306.16,312.26L306.26,312.59L306.36,242.15L307.16,312.33L307.26,312.54L307.66,311.92L307.97,312.37L308.07,312.86L308.66,308.93L308.76,312.25L308.86,312.37L309.77,312.39L309.87,312.5L310.97,312.36L311.07,311.9L312.07,312.56L312.17,312.4L312.27,310.95L312.37,312.56L312.87,311.72L312.97,312.49L313.97,311.68L314.07,312.64L314.87,312.39L314.97,312.61L315.57,310.18L315.67,311.82L315.77,312.25L315.87,312.74L316.07,312.01L316.47,312.33L316.57,312.38L317.27,312.5L317.37,312.36L317.47,312.52L317.77,311.4L317.97,312.74L318.27,311.8L318.37,312.67L319.07,311.87L319.17,312.44L320.07,311.81L320.17,312.75L320.87,312L320.97,312.37L321.07,312.44L321.37,311.28L321.67,312.14L321.77,312.31L322.17,312.6L322.37,311.91L322.47,312.38L322.57,312.1L323.37,312.39L323.47,312.24L323.57,311.83L324.37,312.66L324.57,312.56L324.67,312.3L325.28,312.81L325.37,311.8L325.47,312.17L325.57,312.55L325.67,312.36L325.97,312.77L326.07,312.67L326.17,308L326.77,312.78L326.97,311.8L327.07,312.47L327.68,312.73L327.78,311.55L328.17,312.65L328.47,312.15L328.57,309.04L329.08,312.69L329.38,312.17L329.48,312.52L329.78,312.67L330.28,312.2L330.38,312.5L331.18,312.68L331.28,312.1L331.78,311.11L332.18,312.7L332.28,312.72L333.08,312.35L333.18,312.67L333.28,311.42L333.88,312.6L333.98,312.23L334.38,312.07L334.68,312.7L334.78,310.81L334.88,312.6L335.58,312.27L335.68,312.55L335.78,312.11L335.98,312.68L336.38,312.55L336.48,312.73L337.18,311.98L337.28,312.03L337.38,312.23L337.68,312.6L337.78,311.52L338.08,312.47L338.18,312.6L338.28,311.73L338.38,312.67L338.88,312.38L338.98,312.28L339.28,312.79L339.58,312.49L339.68,312.6L339.88,312.65L340.28,311.64L340.48,312.32L340.58,312.22L341.38,312.93L341.48,312.6L341.68,312.76L342.28,312.31L342.38,312.57L343.08,312.35L343.18,312.7L343.28,312.69L344.58,312.57L344.69,312.55L344.89,312.86L344.98,311.6L345.28,312.45L345.38,312.66L346.08,311.88L346.18,312.48L346.28,312.64L346.99,311.96L347.29,312.23L347.39,312.49L347.78,311.92L347.88,310.83L348.39,312.62L348.69,312.21L348.79,312.12L349.49,312.62L349.59,312.43L349.69,310.67L349.99,308.57L350.39,312.61L350.49,312.17L350.59,312.15L351.19,312.8L351.29,311.84L352.09,312.72L352.19,312.14L352.79,312.63L352.89,311.78L353.49,312.67L353.69,312.39L353.79,312.07L354.39,312.76L354.59,312.46L354.69,311.7L354.79,312.68L355.49,312.39L355.59,312.2L355.79,311.83L355.99,312.76L356.29,312.25L356.39,312.3L357.09,312.36L357.19,312.6L357.59,312.04L357.89,312.43L357.99,312.65L358.09,309.06L358.49,312.74L358.69,312.57L358.79,311.91L358.89,312.74L359.09,311.02L359.59,312.42L359.69,312.41L360.09,312.17L360.39,312.59L360.49,312.32L360.59,312.56L360.79,311.63L360.89,184.03L361.59,312.69L361.69,311.4L361.79,312.73L362.49,312.18L362.59,312.44L362.69,312.61L363.19,312.9L363.49,312.53L363.59,312.63L363.69,312.36L363.89,312.79L364.3,312.7L364.4,312.64L364.6,312.46L365.09,312.89L365.19,312.57L365.29,312.72L366.2,312.34L366.3,312.58L366.4,312.81L368.1,312.58L368.2,312.83L368.9,312.25L369,312.61L369.1,312.87L369.7,311.77L369.9,312.35L370,312.66L370.6,312.93L370.8,312.75L370.9,312.29L371.7,312.9L371.8,311.84L371.9,312.76L372.6,312.57L372.7,312.61L373,312.01L373.2,312.87L373.5,312.58L373.6,311.92L374.2,312.65L374.4,312.36L374.5,312.45L375.2,312.89L375.4,312.7L375.5,312.42L375.7,312.93L376.2,312.3L376.3,312.44L377.2,312.59L377.3,312.45L378.2,312.83L378.3,312.11L378.4,312.81L379.1,312.5L379.2,312.6L379.4,311.6L379.8,312.71L380,312.31L380.1,312.56L381.1,311.84L381.2,312.36L381.3,312.64L381.4,312.05L381.8,312.83L382.1,312.29L382.2,312.66L383.51,312.42L383.61,312.85L383.91,312.05L384.4,312.48L384.5,312.72L385.1,311.89L385.41,312.06L385.51,312.77L385.71,312.84L386.21,312.29L386.31,312.37L386.41,312.94L386.71,311.99L387.1,312.21L387.21,312.84L387.91,312.03L388.01,312.14L388.11,312.48L389.31,312.78L389.41,312.62L389.51,312.52L390.21,312.73L390.31,312.42L390.41,312.33L390.71,311.79L391.11,312.44L391.21,312.6L391.41,312.44L391.91,312.82L392.01,312.59L392.11,312.61L393.21,312.18L393.31,312.67L393.71,312.17L394.21,312.39L394.31,312.63L394.51,312.63L394.61,311.68L395.41,312.77L395.51,261.23L395.71,312.64L396.31,312.37L396.41,312.76L398.11,312.72L398.21,312.88L398.61,312.2L399.01,312.57L399.11,312.83L399.91,312.56L400.01,312.72L400.71,311.51L400.81,311.75L400.92,312.7L401.21,312.71L401.31,311.44L402.11,312.73L402.21,312.48L402.92,312.86L403.02,312.41L405.42,312.8L405.52,312.56L405.72,311.9L406.22,312.59L406.32,312.65L406.72,312.7L406.82,312.48L406.92,312.08L407.22,311.94L407.72,312.78L407.82,312.55L408.12,312.87L408.62,311.96L408.72,312.71L408.92,312.88L409.42,312.44L409.52,312.79L409.62,312.79L409.72,312.03L410.32,312.47L410.42,312.61L410.82,312.77L410.92,309.21L411.42,312.8L411.72,312.77L411.82,312.59L412.02,312.8L412.42,312.37L412.52,312.66L412.62,312.62L412.82,312.92L413.42,312.39L413.52,312.9L414.32,312.24L414.42,312.85L414.72,311.44L415.02,312.23L415.12,312.81L416.02,312.2L416.12,312.62L416.22,311.96L416.82,312.42L416.92,312.73L417.12,312.84L417.72,312.42L417.82,312.66L418.02,312.84L418.62,312.32L418.72,312.81L419.42,312.34L419.52,312.8L420.02,312.07L420.33,312.59L420.43,312.42L421.22,312.7L421.32,310.22L421.52,312.92L422.12,312.85L422.23,311.72L422.53,312.83L423.03,312.3L423.13,312.67L423.92,312.44L424.02,312.65L425.23,312.4L425.33,312L425.83,312.74L426.03,312.58L426.13,312.09L426.93,312.89L427.03,312.4L427.33,312.6L427.43,312.18L427.63,312.57L427.73,312.86L428.63,312.34L428.73,312.52L428.93,311.66L429.63,312.74L429.73,312.86L431.53,312.86L431.63,312.93L431.93,312.09L432.43,312.78L432.53,312.81L433.33,312.86L433.43,311.59L433.73,313L434.23,312.22L434.33,312.84L435.23,312.58L435.33,312.93L435.63,312.18L435.73,310.9L436.53,312.85L436.63,312.49L437.33,312.88L437.43,312.7L437.53,309.11L437.63,312.96L438.33,312.71L438.43,312.98L439.33,312.38L439.43,312.89L439.74,312.97L440.14,309.58L440.24,312.77L441.03,312.62L441.13,312.84L441.23,312.81L441.94,312.69L442.04,312.97L442.14,312.3L442.24,313.01L442.74,312.61L442.84,312.88L443.64,312.23L443.74,313.01L444.64,312.66L444.74,312.82L445.44,312.25L445.54,312.89L446.44,312.54L446.54,312.74L446.64,312.67L446.84,312.08L447.04,312.84L447.44,312.36L447.54,312.65L448.64,312.37L448.74,311.87L449.24,312.87L449.54,312.42L449.64,311.99L450.44,312.79L450.54,312.49L451.74,312.86L451.84,312.82L452.04,312.09L452.64,312.47L452.74,312.7L452.84,311.67L452.94,312.83L453.44,312.76L453.54,312.54L454.14,312.84L454.24,312.04L454.44,312.9L455.04,312.35L455.14,312.04L455.94,312.83L456.04,312.48L456.14,312.63L457.24,312.45L457.34,312.81L457.94,312.33L458.14,312.76L458.24,312.7L458.34,313.01L458.74,312.73L458.84,311.85L459.55,312.89L459.65,312.39L459.75,312.78L459.95,311.87L460.44,312.33L460.54,312.72L461.35,312.96L461.55,312.61L461.65,312.53L462.05,312.9L462.45,312.41L462.55,312.61L463.55,312.86L463.65,312.74L463.75,312.61L464.35,312.84L464.45,312.62L464.55,312.59L465.55,312.82L465.65,312.4L465.95,311.96L466.45,312.79L466.55,312.47L466.75,312.85L467.15,312.06L467.25,312.77L467.35,312.93L467.45,313.08L467.65,312.03L467.85,312.7L467.95,312.18L468.75,312.91L468.85,312.67L468.95,312.96L469.65,312.17L469.95,312.6L470.05,312.78L470.65,312.29L470.85,312.68L470.95,312.87L471.65,312.33L471.75,312.68L472.05,312.87L472.45,312.47L472.55,312.88L473.85,312.37L473.95,312.85L474.35,311.51L474.75,312.67L474.85,312.6L475.55,312.81L475.65,312.62L475.75,312.35L476.05,312.73L476.15,311.22L476.35,312.2L476.45,312.06L477.25,312.77L477.35,312.78L478.46,312.48L478.56,312.6L478.86,312.05L479.46,312.94L479.56,312.54L481.06,312.83L481.16,312.19L481.86,312.81L481.96,312.55L482.06,312.51L482.86,312.8L482.96,312.52L483.66,312.88L483.76,312.7L483.86,312.54L484.06,312.84L484.46,312.09L484.56,312.9L484.76,312.17L485.36,312.66L485.46,312.71L485.96,311.48L486.06,312.63L486.16,312.58L488.06,312.63L488.16,312.9L489.06,312.84L489.16,312.95L489.46,312.3L490.06,312.59L490.16,312.52L490.76,312.89L490.86,312L491.16,312.89L491.66,312.6L491.76,312.75L492.56,312.42L492.66,312.77L493.46,312.34L493.56,312.55L493.66,312.77L494.26,311.49L494.46,312.47L494.56,312.82L495.46,312.53L495.56,312.66L495.97,312.32L496.17,312.93L496.27,312.64L496.37,312.59L496.56,312.81L497.16,312.22L497.26,312.94L498.17,312.42L498.27,312.75L498.47,312.31L498.97,312.79L499.07,312.52L499.56,312.24L499.97,312.88L500.07,312.66L501.57,312.77L501.67,312.94L501.77,312.36L502.47,312.69L502.57,312.54L503.57,312.55L503.67,311.48L503.97,312.94L504.47,312.7L504.57,312.46L504.67,311.72L505.17,312.79L505.27,312.62L505.37,312.69L505.67,312.32L506.07,312.83L506.17,312.17L507.07,312.8L507.17,312.54L507.67,312.89L507.87,312.26L507.97,312.63L509.07,312.88L509.17,312.82L509.77,312.3L510.07,312.75L510.17,312.75L511.27,312.44L511.37,311.7L512.07,312.99L512.17,312.57L512.27,312.6L512.37,311.94L512.47,312.89L512.97,312.69L513.07,312.74L513.77,311.93L513.97,311.99L514.07,312.54L514.57,311.96L515.07,312.87L515.17,312.51L516.08,312.91L516.17,312.63L518.08,312.84L518.18,312.41L518.78,312.92L518.97,312.78L519.07,312.8L519.58,312.46L519.88,312.76L519.98,312.73L520.08,312.44L520.18,309.04L520.78,312.92L520.98,312.32L521.08,312.74L521.48,312.12L521.88,312.63L521.98,312.69L522.08,312.86L522.18,312.26L522.28,309.15L522.48,312.79L523.08,312.42L523.18,312.74L524.18,311.95L524.28,312.77L524.88,312.25L524.98,312.43L525.08,312.75L525.38,311.95L525.78,312.63L525.88,312.54L526.78,312.65L526.88,311.4L527.18,312.75L527.68,312.65L527.78,312.28L528.68,312.79L528.78,312.71L528.98,312.09L529.48,312.69L529.58,312.69L533.08,312.23L533.18,312.77L533.28,312.14L533.88,312.52L533.98,312.55L534.68,312.32L534.79,312.71L534.89,312.61L535.98,312.73L536.08,312.36L536.18,312.05L536.79,312.65L536.99,312.26L537.09,312.68L537.39,312.91L537.69,312.45L537.79,312.63L537.89,312.93L538.39,312.45L538.49,312.87L538.59,309.23L538.99,312.93L539.39,312.49L539.49,312.59L539.69,312.78L539.79,312.21L540.19,312.76L540.29,312.71L540.49,312.46L541.09,312.94L541.19,312.69L541.89,312.84L541.99,312.4L542.79,312.77L542.89,312.63L542.99,312.55L543.29,312.43L543.79,312.75L543.89,312.54L545.29,312.77L545.39,312.26L545.79,311.91L546.19,312.93L546.29,311.78L546.49,312.84L546.89,311.68L547.09,312.41L547.19,312.74L548.09,312.47L548.19,312.83L549.69,312.59L549.79,312.66L550.89,312.42L550.99,312.68L551.79,312.29L551.89,312.61L551.99,312.79L552.99,312.14L553.19,312.35L553.29,312.56L553.89,311.93L554.09,312.48L554.2,312.62L555.39,312.66L555.49,312.88L556.4,311.6L556.5,312.53L556.6,312.24L556.7,312.67L557.3,312.49L557.4,312.58L557.6,312.72L558.1,312.35L558.2,312.41L558.3,312.55L559.3,312.85L559.4,312.29L559.5,312.24L559.6,312.82L559.9,312.12L560.3,312.57L560.4,312.78L561,311.98"/></g><g class="points"/><g class="text"/></g><g class="trace scatter tracedd7894" style="stroke-miterlimit: 2; opacity: 1;"><g class="fills"/><g class="errorbars"/><g class="lines"><path class="js-line" style="vector-effect: non-scaling-stroke; fill: none; stroke: rgb(255, 127, 14); stroke-opacity: 1; stroke-width: 2px; opacity: 1;" d="M0,308.25L0.6,313.45L0.8,313.43L0.9,313.43L1.8,313.44L1.9,312.01L2.7,313.43L2.8,313.42L3.2,313.45L3.3,312.07L3.8,311.78L4.1,313.47L4.2,311.27L4.8,313.47L5.01,313.33L5.11,313.43L6.5,313.2L6.6,311.94L7.11,313.43L7.21,313.4L7.31,305.57L7.61,313.46L8.11,312.87L8.21,313.37L9.21,313.46L9.31,310.71L10.11,313.46L10.21,313.46L10.41,313.45L10.51,310.05L11.01,313.47L11.31,313.46L11.41,313.29L12.11,313.44L12.21,313.26L12.31,313.24L13.21,313.46L13.31,313.46L17.71,313.35L17.81,312.36L18.41,313.49L18.61,313.47L18.71,312.49L19.41,313.47L19.51,313.39L19.61,313.31L19.81,313.48L19.91,310.69L20.01,305.45L20.41,313.45L20.51,313.43L20.61,313.43L22.61,313.46L22.71,312.15L23.51,313.45L23.61,313.46L24.82,313.34L24.92,312.42L25.41,313.45L25.51,303.17L26.32,313.45L26.42,313.46L30.02,313.45L30.12,311.07L30.72,313.47L30.92,313.17L31.02,313.38L31.22,313.4L31.32,295.07L32.02,313.48L32.12,313.47L32.22,313.42L35.42,313.32L35.52,311.65L35.82,313.49L36.32,313.43L36.42,313.48L37.42,313.45L37.52,313.49L39.02,313.49L39.12,312.05L39.62,313.5L39.92,313.04L40.02,313.13L40.22,312.54L40.92,313.44L41.02,313.44L42.62,313.45L42.72,310.78L43.52,313.47L43.62,313.45L44.33,312.67L44.53,313.41L44.63,313.46L45.42,312.06L45.52,313.44L46.73,313.45L46.83,312.77L47.33,313.45L47.43,305.04L48.23,313.46L48.33,313.46L50.33,313.44L50.43,312.18L51.23,313.48L51.33,313.49L52.23,313.14L52.33,307.21L53.13,313.44L53.23,313.44L56.33,313.41L56.43,312.21L57.23,313.44L57.33,310.97L57.93,313.44L58.13,313.42L58.23,313.43L58.83,313.44L58.93,312.29L59.53,313.44L59.73,313.32L59.83,313.43L61.63,313.45L61.73,312.49L61.83,269.61L62.03,313.44L62.43,313.44L62.53,313.44L64.34,313.44L64.43,312.56L65.14,313.45L65.24,313.42L65.34,313.44L65.64,313.45L65.74,312.59L66.44,313.46L66.54,313.17L66.64,313.07L67.04,313.45L67.24,313.13L67.34,304.15L68.14,313.44L68.24,313.44L69.24,313.44L69.34,312.68L70.14,313.45L70.24,313.45L70.44,311.34L70.94,313.44L71.04,313.41L71.44,313.46L71.54,311.54L72.34,313.47L72.44,313.46L74.64,313.26L74.74,312.72L75.34,313.49L75.44,309.54L76.14,313.47L76.24,313.44L76.34,313.49L80.14,313.44L80.24,313.48L80.85,313.5L80.95,296.56L81.05,313.48L81.74,313.44L81.84,313.43L83.05,313.44L83.15,312.37L83.85,313.45L83.95,313.15L84.05,313.38L86.15,313.48L86.25,313.48L88.25,313.45L88.35,312.21L89.05,313.43L89.15,313.39L89.25,313.39L89.65,313.1L89.95,313.44L90.05,313.44L90.15,312.4L90.75,313.4L90.85,313.46L91.65,311.49L91.75,313.46L92.95,313.47L93.05,310.55L93.15,309.99L93.25,313.44L93.35,313.46L94.75,313.43L94.85,309.25L95.05,313.48L95.65,313.23L95.75,313.21L96.65,313.48L96.75,313.48L97.35,313.47L97.45,308.75L98.25,313.48L98.35,313.48L99.25,313.3L99.35,312.56L99.65,309.31L100.16,313.48L100.26,313.49L104.46,313.47L104.56,299.37L105.36,313.44L105.46,313.44L109.26,313.48L109.36,310.77L110.06,313.46L110.16,313.45L110.26,313.46L110.36,313.11L110.96,313.42L111.06,313.47L111.76,313.19L111.86,311.37L112.56,313.47L112.66,312.65L112.76,313.45L112.96,313.49L113.06,311.71L113.26,313.49L113.46,310.14L113.86,313.41L113.96,313.39L115.56,313.47L115.66,313.49L118.46,313.48L118.56,312.6L119.06,312.36L119.26,313.48L119.36,313.45L119.47,313.48L120.27,313.29L120.37,312.64L121.16,313.49L121.26,313.47L122.67,313.5L122.77,312.35L123.47,313.5L123.57,308.42L124.27,313.48L124.37,313.44L124.47,313.45L125.37,313.49L125.47,313.46L128.07,313.48L128.17,312.32L128.57,313.5L128.97,313.42L129.07,313.46L133.57,313.49L133.67,312.77L134.47,313.47L134.57,313.49L134.77,313.49L134.87,312.46L135.67,313.45L135.77,313.47L137.87,313.46L137.97,312.38L138.37,313.49L138.57,313.42L138.67,310.87L139.38,313.48L139.48,313.47L139.58,313.5L139.68,313.32L139.78,309.97L140.57,313.49L140.67,312.98L141.48,313.49L141.58,313.48L142.38,313.43L142.48,312.42L143.18,313.49L143.28,313.47L143.38,313.49L143.68,313.22L143.78,312.73L143.88,311.04L144.28,313.42L144.48,313.43L144.58,313.38L147.18,313.13L147.28,311.57L147.88,309.65L147.98,313.43L148.08,313.42L148.18,313.43L148.68,312.81L149.08,313.4L149.18,313.43L149.58,312.37L149.68,313.44L149.78,313.4L152.68,313.46L152.78,312.89L152.88,312.36L152.98,313.43L153.38,312.67L153.48,313.43L153.58,311.5L153.88,313.46L154.18,313.46L154.28,313.47L155.58,313.47L155.68,311.94L156.39,313.48L156.49,300.54L157.08,313.5L157.28,313.41L157.38,313.4L157.78,313.49L157.88,313.07L157.98,311.48L158.69,313.48L158.79,313.47L158.89,313.47L162.09,313.43L162.19,312.58L162.99,313.49L163.09,313.4L163.39,313.48L163.49,309.57L164.19,313.48L164.29,313.47L164.39,313.49L166.09,313.41L166.19,312.51L166.99,313.49L167.09,313.49L167.99,313.19L168.09,310.31L168.79,313.5L168.89,313.49L168.99,313.46L170.29,313.48L170.39,312.2L170.89,313.47L170.99,313.43L171.09,288.49L171.79,313.45L171.89,313.38L171.99,313.45L172.39,312.61L172.59,313.2L172.69,313.45L178.7,313.44L178.8,301.25L179.6,313.44L179.7,313.28L180.5,313.44L180.6,310.93L181.1,313.44L181.4,313.41L181.5,313.33L183.2,313.44L183.3,313.44L186.7,313.36L186.8,290.63L187.6,313.47L187.7,313.46L192,313.48L192.1,312.4L192.7,313.5L192.9,313.48L193,313.48L195.51,313.47L195.61,311.99L196.01,313.49L196.21,311.45L196.4,313.46L196.5,313.42L196.9,313.43L197,312.63L197.81,313.44L197.91,313.06L198.01,313.15L198.81,313.42L198.91,310.93L199.71,313.44L199.81,313.36L201.21,313.44L201.31,312.67L202.11,313.44L202.21,313.44L203.41,313.41L203.51,312.56L204.01,311.87L204.21,313.44L204.31,313.35L204.41,313.45L206.01,313.33L206.11,311.51L206.71,313.49L206.91,313.37L207.01,313.12L207.71,313.48L207.81,312.86L208.51,313.49L208.61,313.35L208.71,313.49L210.61,313.46L210.71,312.19L211.51,313.43L211.61,313.42L221.22,313.48L221.32,313.02L222.02,313.47L222.12,313.41L222.22,313.48L222.42,313.45L222.52,310.74L223.12,313.47L223.32,313.44L223.42,313.49L225.62,313.13L225.72,312.12L225.82,283.23L226.12,313.43L226.42,313.41L226.52,313.44L229.42,313.31L229.52,313.48L229.72,313.46L229.82,310.16L230.32,313.48L230.62,313.44L230.72,313.34L231.72,313.48L231.82,313.12L232.13,312.83L232.63,313.45L232.73,313.44L232.92,313.32L233.02,310.08L233.52,313.49L233.82,313.45L233.93,313.4L236.13,313.46L236.23,313.17L236.43,312.95L236.83,313.48L237.03,313.4L237.13,313.44L237.53,312.77L237.83,313.4L237.93,313.46L238.63,313.15L238.73,308.49L239.53,313.48L239.63,313.47L245.23,313.45L245.33,312.48L245.63,313.48L246.13,313.39L246.23,313.48L247.23,313.48L247.33,313.48L253.74,313.45L253.84,304.81L254.64,313.47L254.74,313.48L260.74,313.48L260.84,312.57L261.64,313.48L261.74,313.49L265.94,313.45L266.04,312.61L266.84,313.46L266.94,313.46L268.54,313.48L268.64,312.56L269.44,313.44L269.54,313.46L276.55,313.47L276.65,312.82L277.45,313.49L277.55,313.34L278.55,313.46L278.65,308.53L279.45,313.48L279.55,313.45L283.45,313.48L283.55,313.11L284.25,313.45L284.35,313.31L284.45,313.49L284.65,313.18L285.25,313.46L285.35,313.48L286.45,313.09L286.55,313.47L287.45,313.47L287.55,313.48L287.65,245.77L288.25,313.43L288.36,313.43L306.26,313.48L306.36,281.85L307.16,313.48L307.26,313.46L319.27,313.46L319.37,313.3L320.57,313.46L320.67,313.46L325.57,313.47L325.67,313.45L326.07,313.06L326.17,303.99L326.97,313.45L327.07,313.45L338.78,313.41L338.88,313.47L340.58,313.46L340.68,313.47L345.78,313.45L345.88,313.48L350.79,313.4L350.89,313.49L352.69,313.45L352.79,313.47L360.39,313.45L360.49,313.47L360.79,313.38L360.89,307.33L361.59,313.43L361.69,313.42L361.79,313.43L395.41,313.44L395.51,129.69L396.31,313.44L396.41,313.44L428.83,313.42L428.93,307.42L429.73,313.43L429.83,313.43L485.86,313.46L485.96,311.87L486.76,313.44L486.86,313.44L561,313.5"/></g><g class="points"/><g class="text"/></g></g></g><g class="overplot"/><path class="xlines-above crisp" style="fill: none;" d="M0,0"/><path class="ylines-above crisp" style="fill: none;" d="M0,0"/><g class="overlines-above"/><g class="xaxislayer-above"><g class="xtick"><text text-anchor="middle" x="0" y="403" style="font-family: TOBESTRIPPEDOpen SansTOBESTRIPPED, verdana, arial, sans-serif; font-size: 12px; fill: rgb(68, 68, 68); fill-opacity: 1; white-space: pre;" transform="translate(197.37,0)">50</text></g><g class="xtick"><text text-anchor="middle" x="0" y="403" style="font-family: TOBESTRIPPEDOpen SansTOBESTRIPPED, verdana, arial, sans-serif; font-size: 12px; fill: rgb(68, 68, 68); fill-opacity: 1; white-space: pre;" transform="translate(337.64,0)">100</text></g><g class="xtick"><text text-anchor="middle" x="0" y="403" style="font-family: TOBESTRIPPEDOpen SansTOBESTRIPPED, verdana, arial, sans-serif; font-size: 12px; fill: rgb(68, 68, 68); fill-opacity: 1; white-space: pre;" transform="translate(477.92,0)">150</text></g><g class="xtick"><text text-anchor="middle" x="0" y="403" style="font-family: TOBESTRIPPEDOpen SansTOBESTRIPPED, verdana, arial, sans-serif; font-size: 12px; fill: rgb(68, 68, 68); fill-opacity: 1; white-space: pre;" transform="translate(618.19,0)">200</text></g></g><g class="yaxislayer-above"><g class="ytick"><text text-anchor="end" x="59" y="4.199999999999999" style="font-family: TOBESTRIPPEDOpen SansTOBESTRIPPED, verdana, arial, sans-serif; font-size: 12px; fill: rgb(68, 68, 68); fill-opacity: 1; white-space: pre;" transform="translate(0,373.5)">0</text></g><g class="ytick"><text text-anchor="end" x="59" y="4.199999999999999" style="font-family: TOBESTRIPPEDOpen SansTOBESTRIPPED, verdana, arial, sans-serif; font-size: 12px; fill: rgb(68, 68, 68); fill-opacity: 1; white-space: pre;" transform="translate(0,321.85)">200</text></g><g class="ytick"><text text-anchor="end" x="59" y="4.199999999999999" style="font-family: TOBESTRIPPEDOpen SansTOBESTRIPPED, verdana, arial, sans-serif; font-size: 12px; fill: rgb(68, 68, 68); fill-opacity: 1; white-space: pre;" transform="translate(0,270.19)">400</text></g><g class="ytick"><text text-anchor="end" x="59" y="4.199999999999999" style="font-family: TOBESTRIPPEDOpen SansTOBESTRIPPED, verdana, arial, sans-serif; font-size: 12px; fill: rgb(68, 68, 68); fill-opacity: 1; white-space: pre;" transform="translate(0,218.54)">600</text></g><g class="ytick"><text text-anchor="end" x="59" y="4.199999999999999" style="font-family: TOBESTRIPPEDOpen SansTOBESTRIPPED, verdana, arial, sans-serif; font-size: 12px; fill: rgb(68, 68, 68); fill-opacity: 1; white-space: pre;" transform="translate(0,166.89)">800</text></g><g class="ytick"><text text-anchor="end" x="59" y="4.199999999999999" style="font-family: TOBESTRIPPEDOpen SansTOBESTRIPPED, verdana, arial, sans-serif; font-size: 12px; fill: rgb(68, 68, 68); fill-opacity: 1; white-space: pre;" transform="translate(0,115.22999999999999)">1000</text></g><g class="ytick"><text text-anchor="end" x="59" y="4.199999999999999" style="font-family: TOBESTRIPPEDOpen SansTOBESTRIPPED, verdana, arial, sans-serif; font-size: 12px; fill: rgb(68, 68, 68); fill-opacity: 1; white-space: pre;" transform="translate(0,63.58)">1200</text></g></g><g class="overaxes-above"/></g></g><g class="polarlayer"/><g class="ternarylayer"/><g class="geolayer"/><g class="pielayer"/><g class="glimages"/><defs id="topdefs-ee92ef"><g class="clips"/><clipPath id="legendee92ef"><rect width="56" height="48" x="0" y="0"/></clipPath></defs><g class="layer-above"><g class="imagelayer"/><g class="shapelayer"/></g><g class="infolayer"><g class="legend" pointer-events="all" transform="translate(632.22, 60)"><rect class="bg" shape-rendering="crispEdges" style="stroke: rgb(68, 68, 68); stroke-opacity: 1; fill: rgb(255, 255, 255); fill-opacity: 1; stroke-width: 0px;" width="56" height="48" x="0" y="0"/><g class="scrollbox" transform="translate(0, 0)" clip-path="url(#legendee92ef)"><g class="groups"><g class="traces" style="opacity: 1;" transform="translate(0, 14.5)"><g class="layers" style="opacity: 1;"><g class="legendfill"/><g class="legendlines"><path class="js-line" d="M5,0h30" style="fill: none; stroke: rgb(31, 119, 180); stroke-opacity: 1; stroke-width: 2px;"/></g><g class="legendsymbols"><g class="legendpoints"/></g></g><text class="legendtext user-select-none" text-anchor="start" style="font-family: TOBESTRIPPEDOpen SansTOBESTRIPPED, verdana, arial, sans-serif; font-size: 12px; fill: rgb(68, 68, 68); fill-opacity: 1; white-space: pre;" x="40" y="4.680000000000001">G</text><rect class="legendtoggle" style="cursor: pointer; fill: rgb(0, 0, 0); fill-opacity: 0;" pointer-events="all" x="0" y="-9.5" width="96" height="19"/></g><g class="traces" style="opacity: 1;" transform="translate(0, 33.5)"><g class="layers" style="opacity: 1;"><g class="legendfill"/><g class="legendlines"><path class="js-line" d="M5,0h30" style="fill: none; stroke: rgb(255, 127, 14); stroke-opacity: 1; stroke-width: 2px;"/></g><g class="legendsymbols"><g class="legendpoints"/></g></g><text class="legendtext user-select-none" text-anchor="start" style="font-family: TOBESTRIPPEDOpen SansTOBESTRIPPED, verdana, arial, sans-serif; font-size: 12px; fill: rgb(68, 68, 68); fill-opacity: 1; white-space: pre;" x="40" y="4.680000000000001">D</text><rect class="legendtoggle" style="cursor: pointer; fill: rgb(0, 0, 0); fill-opacity: 0;" pointer-events="all" x="0" y="-9.5" width="96" height="19"/></g></g></g><rect class="scrollbar" rx="20" ry="3" width="0" height="0" style="fill: rgb(128, 139, 164); fill-opacity: 1;" x="0" y="0"/></g><g class="g-gtitle"><text class="gtitle" style="font-family: TOBESTRIPPEDOpen SansTOBESTRIPPED, verdana, arial, sans-serif; font-size: 17px; fill: rgb(68, 68, 68); opacity: 1; font-weight: normal; white-space: pre;" x="350" y="30" text-anchor="middle">seg_l2_gan loss over time</text></g><g class="g-xtitle"><text class="xtitle" style="font-family: TOBESTRIPPEDOpen SansTOBESTRIPPED, verdana, arial, sans-serif; font-size: 14px; fill: rgb(68, 68, 68); opacity: 1; font-weight: normal; white-space: pre;" x="340.5" y="442" text-anchor="middle">epoch</text></g><g class="g-ytitle"><text class="ytitle" transform="rotate(-90,22,225)" style="font-family: TOBESTRIPPEDOpen SansTOBESTRIPPED, verdana, arial, sans-serif; font-size: 14px; fill: rgb(68, 68, 68); opacity: 1; font-weight: normal; white-space: pre;" x="22" y="225" text-anchor="middle">loss</text></g></g></svg>